{"glyphs":{"0":{"ha":694,"x_min":56,"x_max":639,"o":"m 347 439 q 276 465 303 439 q 250 535 250 492 q 276 605 250 579 q 347 631 303 631 q 418 605 392 631 q 444 535 444 579 q 418 465 444 492 q 347 439 392 439 m 347 -14 q 176 33 240 -14 q 84 185 113 79 q 56 465 56 290 l 56 549 q 84 830 56 725 q 176 981 113 935 q 347 1028 240 1028 q 518 981 454 1028 q 610 830 582 935 q 639 549 639 725 l 639 465 q 610 185 639 290 q 518 33 582 79 q 347 -14 454 -14 m 347 86 q 455 120 417 86 q 509 238 493 154 q 525 472 525 322 l 525 542 q 509 776 525 692 q 455 894 493 860 q 347 928 417 928 q 240 894 279 928 q 185 776 201 860 q 169 542 169 692 l 169 472 q 185 238 169 322 q 240 120 201 154 q 347 86 279 86 z "},"1":{"ha":694,"x_min":50,"x_max":494,"o":"m 381 0 l 381 879 l 376 879 l 50 615 l 50 747 l 381 1014 l 494 1014 l 494 0 l 381 0 z "},"2":{"ha":694,"x_min":90,"x_max":604,"o":"m 90 97 q 274 317 199 222 q 394 487 349 413 q 459 623 439 561 q 479 743 479 685 q 438 883 479 838 q 308 928 396 928 q 90 875 206 928 l 90 979 q 331 1028 197 1028 q 531 961 467 1028 q 596 754 596 894 q 576 619 596 689 q 515 472 557 550 q 404 303 472 394 q 240 103 336 213 l 240 97 l 604 97 l 604 0 l 90 0 l 90 97 z "},"3":{"ha":694,"x_min":83,"x_max":611,"o":"m 300 -14 q 194 -6 253 -14 q 83 21 136 3 l 83 126 q 183 94 133 106 q 281 83 232 83 q 497 297 497 83 q 440 452 497 404 q 256 500 382 500 l 175 500 l 175 597 l 454 911 l 454 917 l 83 917 l 83 1014 l 594 1014 l 594 917 l 308 596 l 308 590 l 338 590 q 540 515 469 590 q 611 297 611 439 q 531 66 611 146 q 300 -14 451 -14 z "},"4":{"ha":694,"x_min":21,"x_max":674,"o":"m 435 0 l 435 201 l 21 201 l 21 299 l 435 1014 l 549 1014 l 549 299 l 674 299 l 674 201 l 549 201 l 549 0 l 435 0 m 149 296 l 435 296 l 435 786 l 429 786 l 149 301 l 149 296 z "},"5":{"ha":694,"x_min":103,"x_max":631,"o":"m 318 -14 q 211 -5 267 -14 q 103 21 156 4 l 103 126 q 199 94 153 106 q 299 83 244 83 q 465 138 414 83 q 517 315 517 193 q 476 482 517 426 q 356 538 435 538 q 272 520 314 538 q 200 472 229 503 l 103 472 l 103 1014 l 607 1014 l 607 917 l 214 917 l 214 594 l 219 594 q 297 625 256 614 q 382 636 339 636 q 566 553 501 636 q 631 315 631 471 q 553 67 631 147 q 318 -14 475 -14 z "},"6":{"ha":694,"x_min":49,"x_max":646,"o":"m 347 -14 q 177 26 243 -14 q 80 149 111 65 q 49 365 49 233 q 101 722 49 579 q 260 942 153 865 q 529 1028 367 1018 l 529 928 q 372 885 442 922 q 256 784 301 849 q 192 632 210 719 l 197 632 q 273 667 229 656 q 371 679 317 679 q 579 597 513 679 q 646 340 646 515 q 574 72 646 158 q 347 -14 503 -14 m 347 83 q 487 146 442 83 q 532 335 532 208 q 487 524 532 463 q 350 586 442 586 q 210 523 257 586 q 163 333 163 460 q 208 145 163 207 q 347 83 254 83 z "},"7":{"ha":694,"x_min":69,"x_max":625,"o":"m 189 0 q 326 476 246 247 q 504 908 406 706 l 504 914 l 69 914 l 69 1014 l 625 1014 l 625 914 q 447 489 525 713 q 308 0 369 265 l 189 0 z "},"8":{"ha":694,"x_min":35,"x_max":660,"o":"m 347 -14 q 119 63 203 -14 q 35 269 35 139 q 225 529 35 454 l 225 535 q 97 640 143 574 q 50 788 50 706 q 131 963 50 897 q 347 1028 211 1028 q 564 963 483 1028 q 644 788 644 897 q 599 641 644 707 q 469 538 553 575 l 469 532 q 612 431 564 496 q 660 269 660 365 q 576 63 660 139 q 347 -14 492 -14 m 347 83 q 492 134 439 83 q 546 272 546 185 q 497 401 546 350 q 342 479 449 451 q 149 272 149 433 q 202 134 149 185 q 347 83 256 83 m 349 586 q 483 656 435 606 q 532 775 532 707 q 483 889 532 847 q 347 931 433 931 q 213 889 263 931 q 163 775 163 847 q 210 658 163 707 q 349 586 258 610 z "},"9":{"ha":694,"x_min":49,"x_max":646,"o":"m 347 1028 q 518 988 453 1028 q 615 865 583 949 q 646 649 646 782 q 594 292 646 436 q 435 73 542 149 q 165 -14 328 -3 l 165 86 q 324 128 254 92 q 439 230 393 165 q 503 382 485 294 l 497 382 q 422 347 465 358 q 324 335 378 335 q 115 417 182 335 q 49 674 49 499 q 120 942 49 856 q 347 1028 192 1028 m 347 931 q 208 869 254 931 q 163 679 163 807 q 208 490 163 553 q 344 428 253 428 q 485 491 439 428 q 532 681 532 554 q 487 869 532 808 q 347 931 442 931 z "},"A":{"ha":694,"x_min":28,"x_max":667,"o":"m 28 0 l 279 1014 l 415 1014 l 667 0 l 553 0 l 350 883 l 344 883 l 142 0 l 28 0 m 156 278 l 156 375 l 539 375 l 539 278 l 156 278 z "},"Á":{"ha":694,"x_min":28,"x_max":667,"o":"m 28 0 l 279 1014 l 415 1014 l 667 0 l 553 0 l 350 883 l 344 883 l 142 0 l 28 0 m 156 278 l 156 375 l 539 375 l 539 278 l 156 278 m 407 1083 l 296 1083 l 438 1389 l 576 1389 l 407 1083 z "},"Â":{"ha":694,"x_min":28,"x_max":667,"o":"m 28 0 l 279 1014 l 415 1014 l 667 0 l 553 0 l 350 883 l 344 883 l 142 0 l 28 0 m 156 278 l 156 375 l 539 375 l 539 278 l 156 278 m 69 1083 l 254 1389 l 440 1389 l 625 1083 l 492 1083 l 350 1329 l 344 1329 l 203 1083 l 69 1083 z "},"Ä":{"ha":694,"x_min":28,"x_max":667,"o":"m 28 0 l 279 1014 l 415 1014 l 667 0 l 553 0 l 350 883 l 344 883 l 142 0 l 28 0 m 156 278 l 156 375 l 539 375 l 539 278 l 156 278 m 189 1100 q 117 1126 144 1100 q 90 1194 90 1151 q 117 1264 90 1239 q 189 1289 144 1289 q 260 1264 233 1289 q 288 1194 288 1239 q 260 1126 288 1151 q 189 1100 233 1100 m 506 1100 q 434 1126 461 1100 q 407 1194 407 1151 q 434 1264 407 1239 q 506 1289 461 1289 q 577 1264 550 1289 q 604 1194 604 1239 q 577 1126 604 1151 q 506 1100 550 1100 z "},"À":{"ha":694,"x_min":28,"x_max":667,"o":"m 28 0 l 279 1014 l 415 1014 l 667 0 l 553 0 l 350 883 l 344 883 l 142 0 l 28 0 m 156 278 l 156 375 l 539 375 l 539 278 l 156 278 m 288 1083 l 118 1389 l 257 1389 l 399 1083 l 288 1083 z "},"Ā":{"ha":694,"x_min":28,"x_max":667,"o":"m 28 0 l 279 1014 l 415 1014 l 667 0 l 553 0 l 350 883 l 344 883 l 142 0 l 28 0 m 156 278 l 156 375 l 539 375 l 539 278 l 156 278 m 104 1108 l 104 1197 l 590 1197 l 590 1108 l 104 1108 z "},"Å":{"ha":694,"x_min":28,"x_max":667,"o":"m 28 0 l 279 1014 l 415 1014 l 667 0 l 553 0 l 350 883 l 344 883 l 142 0 l 28 0 m 156 278 l 156 375 l 539 375 l 539 278 l 156 278 m 347 950 q 248 976 293 950 q 176 1048 203 1003 q 150 1147 150 1093 q 176 1247 150 1203 q 248 1318 203 1292 q 347 1344 293 1344 q 447 1318 403 1344 q 518 1247 492 1292 q 544 1147 544 1203 q 518 1048 544 1093 q 447 976 492 1003 q 347 950 403 950 m 347 1033 q 428 1067 396 1033 q 461 1147 461 1100 q 428 1228 461 1196 q 347 1261 396 1261 q 267 1228 300 1261 q 233 1147 233 1196 q 267 1067 233 1100 q 347 1033 300 1033 z "},"Ã":{"ha":694,"x_min":28,"x_max":667,"o":"m 28 0 l 279 1014 l 415 1014 l 667 0 l 553 0 l 350 883 l 344 883 l 142 0 l 28 0 m 156 278 l 156 375 l 539 375 l 539 278 l 156 278 m 464 1088 q 389 1110 425 1088 q 301 1183 353 1132 q 260 1222 275 1211 q 235 1232 246 1232 q 203 1199 214 1232 q 192 1101 192 1165 l 83 1101 q 122 1275 83 1213 q 231 1338 161 1338 q 306 1316 269 1338 q 393 1242 342 1294 q 434 1204 419 1215 q 460 1193 449 1193 q 492 1226 481 1193 q 503 1324 503 1260 l 611 1324 q 572 1150 611 1213 q 464 1088 533 1088 z "},"Æ":{"ha":694,"x_min":17,"x_max":671,"o":"m 17 0 l 296 1014 l 671 1014 l 671 917 l 475 917 l 475 585 l 657 585 l 657 488 l 475 488 l 475 97 l 671 97 l 671 0 l 364 0 l 364 883 l 358 883 l 131 0 l 17 0 m 156 278 l 156 375 l 414 375 l 414 278 l 156 278 z "},"B":{"ha":694,"x_min":90,"x_max":646,"o":"m 294 -14 q 206 -10 260 -14 q 90 3 153 -7 l 90 1011 q 206 1024 154 1021 q 294 1028 258 1028 q 539 964 458 1028 q 619 771 619 900 q 585 629 619 686 q 482 546 550 572 l 482 540 q 606 456 565 517 q 646 292 646 394 q 558 63 646 140 q 294 -14 469 -14 m 174 104 q 242 90 210 94 q 307 86 274 86 q 477 137 422 86 q 532 292 532 188 q 477 442 532 396 q 303 489 422 489 l 146 489 l 146 583 l 292 583 q 454 627 401 583 q 507 761 507 671 q 458 888 507 847 q 307 928 410 928 q 240 924 274 928 q 174 910 207 919 l 201 954 l 201 60 l 174 104 z "},"C":{"ha":694,"x_min":65,"x_max":593,"o":"m 431 -14 q 158 107 250 -14 q 65 465 65 228 l 65 549 q 154 907 65 786 q 417 1028 243 1028 q 511 1019 465 1028 q 593 992 557 1010 l 593 653 l 482 653 l 482 975 l 538 889 q 414 928 485 928 q 239 831 299 928 q 179 542 179 733 l 179 472 q 244 180 179 274 q 442 86 308 86 q 519 93 479 86 q 593 111 560 100 l 593 7 q 515 -8 558 -3 q 431 -14 471 -14 z "},"Ç":{"ha":694,"x_min":65,"x_max":593,"o":"m 331 -303 q 289 -301 308 -303 q 251 -293 269 -299 l 251 -201 q 285 -210 267 -207 q 322 -212 303 -212 q 356 -208 342 -212 q 379 -192 371 -203 q 388 -162 388 -181 q 351 -67 388 -118 q 244 31 314 -17 l 339 58 q 451 -56 413 6 q 490 -181 490 -117 q 472 -247 490 -219 q 417 -288 453 -274 q 331 -303 382 -303 m 431 -14 q 158 107 250 -14 q 65 465 65 228 l 65 549 q 154 907 65 786 q 417 1028 243 1028 q 511 1019 465 1028 q 593 992 557 1010 l 593 653 l 482 653 l 482 975 l 538 889 q 414 928 485 928 q 239 831 299 928 q 179 542 179 733 l 179 472 q 244 180 179 274 q 442 86 308 86 q 519 93 479 86 q 593 111 560 100 l 593 7 q 515 -8 558 -3 q 431 -14 471 -14 z "},"D":{"ha":694,"x_min":85,"x_max":640,"o":"m 264 -14 q 85 3 188 -14 l 85 1011 q 264 1028 188 1028 q 480 979 397 1028 q 601 825 563 931 q 640 549 640 719 l 640 465 q 601 190 640 296 q 480 35 563 83 q 264 -14 397 -14 m 175 103 q 225 90 199 94 q 281 86 251 86 q 423 126 368 86 q 503 250 478 165 q 528 472 528 335 l 528 542 q 503 764 528 679 q 423 888 478 849 q 281 928 368 928 q 225 924 251 928 q 175 911 199 919 l 196 949 l 196 65 l 175 103 z "},"Ð":{"ha":694,"x_min":3,"x_max":646,"o":"m 3 488 l 3 585 l 406 585 l 406 488 l 3 488 m 269 -14 q 90 3 193 -14 l 90 1011 q 269 1028 193 1028 q 485 979 403 1028 q 607 825 568 931 q 646 549 646 719 l 646 465 q 607 190 646 296 q 485 35 568 83 q 269 -14 403 -14 m 181 103 q 231 90 204 94 q 286 86 257 86 q 428 126 374 86 q 508 250 483 165 q 533 472 533 335 l 533 542 q 508 764 533 679 q 428 888 483 849 q 286 928 374 928 q 231 924 257 928 q 181 911 204 919 l 201 949 l 201 65 l 181 103 z "},"E":{"ha":694,"x_min":113,"x_max":599,"o":"m 113 0 l 113 1014 l 599 1014 l 599 917 l 225 917 l 225 585 l 585 585 l 585 488 l 225 488 l 225 97 l 599 97 l 599 0 l 113 0 z "},"É":{"ha":694,"x_min":113,"x_max":599,"o":"m 113 0 l 113 1014 l 599 1014 l 599 917 l 225 917 l 225 585 l 585 585 l 585 488 l 225 488 l 225 97 l 599 97 l 599 0 l 113 0 m 407 1083 l 296 1083 l 438 1389 l 576 1389 l 407 1083 z "},"Ê":{"ha":694,"x_min":69,"x_max":625,"o":"m 113 0 l 113 1014 l 599 1014 l 599 917 l 225 917 l 225 585 l 585 585 l 585 488 l 225 488 l 225 97 l 599 97 l 599 0 l 113 0 m 69 1083 l 254 1389 l 440 1389 l 625 1083 l 492 1083 l 350 1329 l 344 1329 l 203 1083 l 69 1083 z "},"Ë":{"ha":694,"x_min":90,"x_max":604,"o":"m 113 0 l 113 1014 l 599 1014 l 599 917 l 225 917 l 225 585 l 585 585 l 585 488 l 225 488 l 225 97 l 599 97 l 599 0 l 113 0 m 189 1100 q 117 1126 144 1100 q 90 1194 90 1151 q 117 1264 90 1239 q 189 1289 144 1289 q 260 1264 233 1289 q 288 1194 288 1239 q 260 1126 288 1151 q 189 1100 233 1100 m 506 1100 q 434 1126 461 1100 q 407 1194 407 1151 q 434 1264 407 1239 q 506 1289 461 1289 q 577 1264 550 1289 q 604 1194 604 1239 q 577 1126 604 1151 q 506 1100 550 1100 z "},"È":{"ha":694,"x_min":113,"x_max":599,"o":"m 113 0 l 113 1014 l 599 1014 l 599 917 l 225 917 l 225 585 l 585 585 l 585 488 l 225 488 l 225 97 l 599 97 l 599 0 l 113 0 m 288 1083 l 118 1389 l 257 1389 l 399 1083 l 288 1083 z "},"F":{"ha":694,"x_min":121,"x_max":621,"o":"m 121 0 l 121 1014 l 621 1014 l 621 917 l 235 917 l 235 571 l 607 571 l 607 474 l 235 474 l 235 0 l 121 0 z "},"G":{"ha":694,"x_min":51,"x_max":621,"o":"m 419 -14 q 51 465 51 -14 l 51 549 q 145 909 51 790 q 429 1028 239 1028 q 513 1023 469 1028 q 594 1010 556 1018 l 594 907 q 515 922 556 917 q 436 928 474 928 q 230 836 294 928 q 165 542 165 744 l 165 472 q 227 183 165 279 q 413 86 289 86 q 481 93 444 86 q 553 114 518 100 l 510 61 l 510 489 l 301 489 l 301 583 l 621 583 l 621 14 q 521 -7 576 0 q 419 -14 465 -14 z "},"H":{"ha":694,"x_min":76,"x_max":618,"o":"m 76 0 l 76 1014 l 188 1014 l 188 586 l 507 586 l 507 1014 l 618 1014 l 618 0 l 507 0 l 507 486 l 188 486 l 188 0 l 76 0 z "},"I":{"ha":694,"x_min":104,"x_max":590,"o":"m 104 0 l 104 97 l 290 97 l 290 917 l 104 917 l 104 1014 l 590 1014 l 590 917 l 404 917 l 404 97 l 590 97 l 590 0 l 104 0 z "},"Í":{"ha":694,"x_min":104,"x_max":590,"o":"m 104 0 l 104 97 l 290 97 l 290 917 l 104 917 l 104 1014 l 590 1014 l 590 917 l 404 917 l 404 97 l 590 97 l 590 0 l 104 0 m 407 1083 l 296 1083 l 438 1389 l 576 1389 l 407 1083 z "},"Î":{"ha":694,"x_min":69,"x_max":625,"o":"m 104 0 l 104 97 l 290 97 l 290 917 l 104 917 l 104 1014 l 590 1014 l 590 917 l 404 917 l 404 97 l 590 97 l 590 0 l 104 0 m 69 1083 l 254 1389 l 440 1389 l 625 1083 l 492 1083 l 350 1329 l 344 1329 l 203 1083 l 69 1083 z "},"Ï":{"ha":694,"x_min":90,"x_max":604,"o":"m 104 0 l 104 97 l 290 97 l 290 917 l 104 917 l 104 1014 l 590 1014 l 590 917 l 404 917 l 404 97 l 590 97 l 590 0 l 104 0 m 189 1100 q 117 1126 144 1100 q 90 1194 90 1151 q 117 1264 90 1239 q 189 1289 144 1289 q 260 1264 233 1289 q 288 1194 288 1239 q 260 1126 288 1151 q 189 1100 233 1100 m 506 1100 q 434 1126 461 1100 q 407 1194 407 1151 q 434 1264 407 1239 q 506 1289 461 1289 q 577 1264 550 1289 q 604 1194 604 1239 q 577 1126 604 1151 q 506 1100 550 1100 z "},"Ì":{"ha":694,"x_min":104,"x_max":590,"o":"m 104 0 l 104 97 l 290 97 l 290 917 l 104 917 l 104 1014 l 590 1014 l 590 917 l 404 917 l 404 97 l 590 97 l 590 0 l 104 0 m 288 1083 l 118 1389 l 257 1389 l 399 1083 l 288 1083 z "},"J":{"ha":694,"x_min":63,"x_max":549,"o":"m 267 -14 q 63 26 151 -14 l 63 131 q 153 98 106 110 q 253 86 201 86 q 392 132 350 86 q 435 281 435 178 l 435 917 l 118 917 l 118 1014 l 549 1014 l 549 271 q 482 54 549 122 q 267 -14 415 -14 z "},"K":{"ha":694,"x_min":104,"x_max":660,"o":"m 104 0 l 104 1014 l 215 1014 l 215 575 l 221 575 l 533 1014 l 660 1014 l 319 536 l 660 0 l 535 0 l 221 497 l 215 497 l 215 0 l 104 0 z "},"L":{"ha":694,"x_min":111,"x_max":625,"o":"m 111 0 l 111 1014 l 225 1014 l 225 100 l 625 100 l 625 0 l 111 0 z "},"M":{"ha":694,"x_min":56,"x_max":639,"o":"m 56 0 l 56 1014 l 244 1014 l 344 318 l 350 318 l 450 1014 l 639 1014 l 639 0 l 531 0 l 531 869 l 525 869 l 424 194 l 271 194 l 169 869 l 164 869 l 164 0 l 56 0 z "},"N":{"ha":694,"x_min":76,"x_max":618,"o":"m 76 0 l 76 1014 l 257 1014 l 501 139 l 507 139 l 507 1014 l 618 1014 l 618 0 l 438 0 l 193 875 l 188 875 l 188 0 l 76 0 z "},"Ñ":{"ha":694,"x_min":76,"x_max":618,"o":"m 76 0 l 76 1014 l 257 1014 l 501 139 l 507 139 l 507 1014 l 618 1014 l 618 0 l 438 0 l 193 875 l 188 875 l 188 0 l 76 0 m 464 1088 q 389 1110 425 1088 q 301 1183 353 1132 q 260 1222 275 1211 q 235 1232 246 1232 q 203 1199 214 1232 q 192 1101 192 1165 l 83 1101 q 122 1275 83 1213 q 231 1338 161 1338 q 306 1316 269 1338 q 393 1242 342 1294 q 434 1204 419 1215 q 460 1193 449 1193 q 492 1226 481 1193 q 503 1324 503 1260 l 611 1324 q 572 1150 611 1213 q 464 1088 533 1088 z "},"O":{"ha":694,"x_min":56,"x_max":639,"o":"m 347 -14 q 176 33 240 -14 q 84 185 113 79 q 56 465 56 290 l 56 549 q 84 830 56 725 q 176 981 113 935 q 347 1028 240 1028 q 518 981 454 1028 q 610 830 582 935 q 639 549 639 725 l 639 465 q 610 185 639 290 q 518 33 582 79 q 347 -14 454 -14 m 347 86 q 455 120 417 86 q 509 238 493 154 q 525 472 525 322 l 525 542 q 509 776 525 692 q 455 894 493 860 q 347 928 417 928 q 240 894 279 928 q 185 776 201 860 q 169 542 169 692 l 169 472 q 185 238 169 322 q 240 120 201 154 q 347 86 279 86 z "},"Ó":{"ha":694,"x_min":56,"x_max":639,"o":"m 347 -14 q 176 33 240 -14 q 84 185 113 79 q 56 465 56 290 l 56 549 q 84 830 56 725 q 176 981 113 935 q 347 1028 240 1028 q 518 981 454 1028 q 610 830 582 935 q 639 549 639 725 l 639 465 q 610 185 639 290 q 518 33 582 79 q 347 -14 454 -14 m 347 86 q 455 120 417 86 q 509 238 493 154 q 525 472 525 322 l 525 542 q 509 776 525 692 q 455 894 493 860 q 347 928 417 928 q 240 894 279 928 q 185 776 201 860 q 169 542 169 692 l 169 472 q 185 238 169 322 q 240 120 201 154 q 347 86 279 86 m 407 1083 l 296 1083 l 438 1389 l 576 1389 l 407 1083 z "},"Ô":{"ha":694,"x_min":56,"x_max":639,"o":"m 347 -14 q 176 33 240 -14 q 84 185 113 79 q 56 465 56 290 l 56 549 q 84 830 56 725 q 176 981 113 935 q 347 1028 240 1028 q 518 981 454 1028 q 610 830 582 935 q 639 549 639 725 l 639 465 q 610 185 639 290 q 518 33 582 79 q 347 -14 454 -14 m 347 86 q 455 120 417 86 q 509 238 493 154 q 525 472 525 322 l 525 542 q 509 776 525 692 q 455 894 493 860 q 347 928 417 928 q 240 894 279 928 q 185 776 201 860 q 169 542 169 692 l 169 472 q 185 238 169 322 q 240 120 201 154 q 347 86 279 86 m 69 1083 l 254 1389 l 440 1389 l 625 1083 l 492 1083 l 350 1329 l 344 1329 l 203 1083 l 69 1083 z "},"Ö":{"ha":694,"x_min":56,"x_max":639,"o":"m 347 -14 q 176 33 240 -14 q 84 185 113 79 q 56 465 56 290 l 56 549 q 84 830 56 725 q 176 981 113 935 q 347 1028 240 1028 q 518 981 454 1028 q 610 830 582 935 q 639 549 639 725 l 639 465 q 610 185 639 290 q 518 33 582 79 q 347 -14 454 -14 m 347 86 q 455 120 417 86 q 509 238 493 154 q 525 472 525 322 l 525 542 q 509 776 525 692 q 455 894 493 860 q 347 928 417 928 q 240 894 279 928 q 185 776 201 860 q 169 542 169 692 l 169 472 q 185 238 169 322 q 240 120 201 154 q 347 86 279 86 m 189 1100 q 117 1126 144 1100 q 90 1194 90 1151 q 117 1264 90 1239 q 189 1289 144 1289 q 260 1264 233 1289 q 288 1194 288 1239 q 260 1126 288 1151 q 189 1100 233 1100 m 506 1100 q 434 1126 461 1100 q 407 1194 407 1151 q 434 1264 407 1239 q 506 1289 461 1289 q 577 1264 550 1289 q 604 1194 604 1239 q 577 1126 604 1151 q 506 1100 550 1100 z "},"Ò":{"ha":694,"x_min":56,"x_max":639,"o":"m 347 -14 q 176 33 240 -14 q 84 185 113 79 q 56 465 56 290 l 56 549 q 84 830 56 725 q 176 981 113 935 q 347 1028 240 1028 q 518 981 454 1028 q 610 830 582 935 q 639 549 639 725 l 639 465 q 610 185 639 290 q 518 33 582 79 q 347 -14 454 -14 m 347 86 q 455 120 417 86 q 509 238 493 154 q 525 472 525 322 l 525 542 q 509 776 525 692 q 455 894 493 860 q 347 928 417 928 q 240 894 279 928 q 185 776 201 860 q 169 542 169 692 l 169 472 q 185 238 169 322 q 240 120 201 154 q 347 86 279 86 m 288 1083 l 118 1389 l 257 1389 l 399 1083 l 288 1083 z "},"Ø":{"ha":694,"x_min":53,"x_max":642,"o":"m 53 -14 l 539 1028 l 642 1028 l 156 -14 l 53 -14 m 347 -14 q 176 33 240 -14 q 84 185 113 79 q 56 465 56 290 l 56 549 q 84 830 56 725 q 176 981 113 935 q 347 1028 240 1028 q 518 981 454 1028 q 610 830 582 935 q 639 549 639 725 l 639 465 q 610 185 639 290 q 518 33 582 79 q 347 -14 454 -14 m 347 86 q 455 120 417 86 q 509 238 493 154 q 525 472 525 322 l 525 542 q 509 776 525 692 q 455 894 493 860 q 347 928 417 928 q 240 894 279 928 q 185 776 201 860 q 169 542 169 692 l 169 472 q 185 238 169 322 q 240 120 201 154 q 347 86 279 86 z "},"Õ":{"ha":694,"x_min":56,"x_max":639,"o":"m 347 -14 q 176 33 240 -14 q 84 185 113 79 q 56 465 56 290 l 56 549 q 84 830 56 725 q 176 981 113 935 q 347 1028 240 1028 q 518 981 454 1028 q 610 830 582 935 q 639 549 639 725 l 639 465 q 610 185 639 290 q 518 33 582 79 q 347 -14 454 -14 m 347 86 q 455 120 417 86 q 509 238 493 154 q 525 472 525 322 l 525 542 q 509 776 525 692 q 455 894 493 860 q 347 928 417 928 q 240 894 279 928 q 185 776 201 860 q 169 542 169 692 l 169 472 q 185 238 169 322 q 240 120 201 154 q 347 86 279 86 m 464 1088 q 389 1110 425 1088 q 301 1183 353 1132 q 260 1222 275 1211 q 235 1232 246 1232 q 203 1199 214 1232 q 192 1101 192 1165 l 83 1101 q 122 1275 83 1213 q 231 1338 161 1338 q 306 1316 269 1338 q 393 1242 342 1294 q 434 1204 419 1215 q 460 1193 449 1193 q 492 1226 481 1193 q 503 1324 503 1260 l 611 1324 q 572 1150 611 1213 q 464 1088 533 1088 z "},"P":{"ha":694,"x_min":104,"x_max":646,"o":"m 104 1011 q 212 1024 165 1021 q 297 1028 258 1028 q 500 994 424 1028 q 611 885 576 960 q 646 688 646 811 q 611 490 646 565 q 500 381 576 415 q 297 347 424 347 q 224 350 258 347 q 150 358 189 353 l 186 458 q 247 450 219 453 q 307 447 275 447 q 440 471 390 447 q 511 547 489 494 q 533 688 533 600 q 511 828 533 776 q 440 904 489 881 q 307 928 390 928 q 244 925 275 928 q 182 917 214 922 l 218 956 l 218 0 l 104 0 l 104 1011 z "},"Þ":{"ha":694,"x_min":104,"x_max":646,"o":"m 297 194 q 224 197 258 194 q 150 206 189 200 l 186 306 q 247 297 219 300 q 307 294 275 294 q 440 318 390 294 q 511 394 489 342 q 533 535 533 447 q 511 676 533 624 q 440 751 489 728 q 307 775 390 775 q 247 772 275 775 q 186 764 219 769 l 150 864 q 224 872 189 869 q 297 875 258 875 q 500 841 424 875 q 611 733 576 807 q 646 535 646 658 q 611 338 646 413 q 500 228 576 263 q 297 194 424 194 m 104 0 l 104 1014 l 218 1014 l 218 0 l 104 0 z "},"Q":{"ha":694,"x_min":56,"x_max":667,"o":"m 553 -208 q 531 -97 553 -140 q 465 -34 510 -54 q 347 -14 419 -14 q 176 33 240 -14 q 84 185 113 79 q 56 465 56 290 l 56 549 q 84 830 56 725 q 176 981 113 935 q 347 1028 240 1028 q 518 981 454 1028 q 610 830 582 935 q 639 549 639 725 l 639 465 q 610 184 639 285 q 515 39 581 83 l 515 33 q 628 -55 589 7 q 667 -208 667 -117 l 553 -208 m 347 86 q 454 120 415 86 q 509 238 493 154 q 525 472 525 322 l 525 542 q 509 776 525 692 q 454 894 493 860 q 347 928 415 928 q 240 894 279 928 q 185 776 201 860 q 169 542 169 692 l 169 472 q 185 238 169 322 q 240 120 201 154 q 347 86 279 86 z "},"R":{"ha":694,"x_min":97,"x_max":653,"o":"m 97 1011 q 203 1024 158 1021 q 290 1028 249 1028 q 493 997 417 1028 q 604 897 569 965 q 639 715 639 828 q 604 534 639 603 q 493 434 569 465 q 290 403 417 403 q 217 406 253 403 q 143 414 182 408 l 179 511 q 244 503 215 506 q 300 500 274 500 q 433 521 383 500 q 504 589 482 542 q 526 714 526 636 q 504 840 526 793 q 433 907 482 886 q 300 928 383 928 q 242 926 272 928 q 175 917 213 924 l 208 956 l 208 0 l 97 0 l 97 1011 m 522 0 l 175 456 l 303 456 l 653 0 l 522 0 z "},"S":{"ha":694,"x_min":72,"x_max":614,"o":"m 311 -14 q 203 -5 257 -14 q 97 22 150 4 l 97 129 q 199 97 149 108 q 301 86 249 86 q 448 125 396 86 q 500 249 500 164 q 483 328 500 293 q 424 397 465 364 q 310 471 383 431 q 167 567 219 522 q 94 662 115 611 q 72 778 72 713 q 148 967 72 907 q 386 1028 224 1028 q 484 1022 435 1028 q 588 1004 533 1017 l 588 708 l 476 708 l 476 961 l 521 911 q 451 924 483 919 q 383 928 418 928 q 235 891 283 928 q 186 776 186 854 q 203 698 186 733 q 263 628 221 663 q 378 554 306 594 q 518 459 467 504 q 592 363 569 414 q 614 246 614 313 q 538 51 614 115 q 311 -14 463 -14 z "},"T":{"ha":694,"x_min":56,"x_max":639,"o":"m 290 0 l 290 914 l 56 914 l 56 1014 l 639 1014 l 639 914 l 404 914 l 404 0 l 290 0 z "},"U":{"ha":694,"x_min":76,"x_max":618,"o":"m 347 -14 q 142 55 208 -14 q 76 271 76 124 l 76 1014 l 188 1014 l 188 282 q 225 132 188 178 q 347 86 263 86 q 470 132 433 86 q 507 282 507 178 l 507 1014 l 618 1014 l 618 271 q 553 55 618 124 q 347 -14 488 -14 z "},"Ú":{"ha":694,"x_min":76,"x_max":618,"o":"m 347 -14 q 142 55 208 -14 q 76 271 76 124 l 76 1014 l 188 1014 l 188 282 q 225 132 188 178 q 347 86 263 86 q 470 132 433 86 q 507 282 507 178 l 507 1014 l 618 1014 l 618 271 q 553 55 618 124 q 347 -14 488 -14 m 407 1083 l 296 1083 l 438 1389 l 576 1389 l 407 1083 z "},"Û":{"ha":694,"x_min":69,"x_max":625,"o":"m 347 -14 q 142 55 208 -14 q 76 271 76 124 l 76 1014 l 188 1014 l 188 282 q 225 132 188 178 q 347 86 263 86 q 470 132 433 86 q 507 282 507 178 l 507 1014 l 618 1014 l 618 271 q 553 55 618 124 q 347 -14 488 -14 m 69 1083 l 254 1389 l 440 1389 l 625 1083 l 492 1083 l 350 1329 l 344 1329 l 203 1083 l 69 1083 z "},"Ü":{"ha":694,"x_min":76,"x_max":618,"o":"m 347 -14 q 142 55 208 -14 q 76 271 76 124 l 76 1014 l 188 1014 l 188 282 q 225 132 188 178 q 347 86 263 86 q 470 132 433 86 q 507 282 507 178 l 507 1014 l 618 1014 l 618 271 q 553 55 618 124 q 347 -14 488 -14 m 189 1100 q 117 1126 144 1100 q 90 1194 90 1151 q 117 1264 90 1239 q 189 1289 144 1289 q 260 1264 233 1289 q 288 1194 288 1239 q 260 1126 288 1151 q 189 1100 233 1100 m 506 1100 q 434 1126 461 1100 q 407 1194 407 1151 q 434 1264 407 1239 q 506 1289 461 1289 q 577 1264 550 1289 q 604 1194 604 1239 q 577 1126 604 1151 q 506 1100 550 1100 z "},"Ù":{"ha":694,"x_min":76,"x_max":618,"o":"m 347 -14 q 142 55 208 -14 q 76 271 76 124 l 76 1014 l 188 1014 l 188 282 q 225 132 188 178 q 347 86 263 86 q 470 132 433 86 q 507 282 507 178 l 507 1014 l 618 1014 l 618 271 q 553 55 618 124 q 347 -14 488 -14 m 288 1083 l 118 1389 l 257 1389 l 399 1083 l 288 1083 z "},"V":{"ha":694,"x_min":28,"x_max":667,"o":"m 279 0 l 28 1014 l 142 1014 l 344 144 l 350 144 l 553 1014 l 667 1014 l 415 0 l 279 0 z "},"W":{"ha":694,"x_min":14,"x_max":681,"o":"m 104 0 l 14 1014 l 128 1014 l 183 143 l 189 143 l 261 875 l 433 875 l 506 143 l 511 143 l 567 1014 l 681 1014 l 590 0 l 429 0 l 350 747 l 344 747 l 265 0 l 104 0 z "},"X":{"ha":694,"x_min":56,"x_max":639,"o":"m 56 0 l 268 510 l 56 1014 l 174 1014 l 344 589 l 350 589 l 521 1014 l 639 1014 l 426 510 l 639 0 l 519 0 l 350 431 l 344 431 l 175 0 l 56 0 z "},"Y":{"ha":694,"x_min":21,"x_max":674,"o":"m 290 0 l 290 396 l 21 1014 l 136 1014 l 344 515 l 350 515 l 558 1014 l 674 1014 l 404 396 l 404 0 l 290 0 z "},"Ý":{"ha":694,"x_min":21,"x_max":674,"o":"m 290 0 l 290 396 l 21 1014 l 136 1014 l 344 515 l 350 515 l 558 1014 l 674 1014 l 404 396 l 404 0 l 290 0 m 407 1083 l 296 1083 l 438 1389 l 576 1389 l 407 1083 z "},"Z":{"ha":694,"x_min":97,"x_max":597,"o":"m 97 0 l 97 97 l 472 911 l 472 917 l 97 917 l 97 1014 l 597 1014 l 597 917 l 222 103 l 222 97 l 597 97 l 597 0 l 97 0 z "},"a":{"ha":694,"x_min":65,"x_max":594,"o":"m 363 -14 q 144 49 224 -14 q 65 222 65 113 q 153 396 65 338 q 414 454 242 454 l 539 454 l 539 364 l 415 364 q 176 224 176 364 q 225 118 176 157 q 358 79 274 79 q 445 90 403 79 q 517 119 488 101 l 486 56 l 486 469 q 475 578 486 540 q 431 628 464 615 q 336 642 399 642 q 258 638 296 642 q 183 624 221 633 q 104 600 146 615 l 104 696 q 216 726 153 715 q 347 736 279 736 q 496 713 442 736 q 572 631 550 689 q 594 472 594 574 l 594 31 q 488 -2 551 10 q 363 -14 424 -14 z "},"á":{"ha":694,"x_min":65,"x_max":594,"o":"m 363 -14 q 144 49 224 -14 q 65 222 65 113 q 153 396 65 338 q 414 454 242 454 l 539 454 l 539 364 l 415 364 q 176 224 176 364 q 225 118 176 157 q 358 79 274 79 q 445 90 403 79 q 517 119 488 101 l 486 56 l 486 469 q 475 578 486 540 q 431 628 464 615 q 336 642 399 642 q 258 638 296 642 q 183 624 221 633 q 104 600 146 615 l 104 696 q 216 726 153 715 q 347 736 279 736 q 496 713 442 736 q 572 631 550 689 q 594 472 594 574 l 594 31 q 488 -2 551 10 q 363 -14 424 -14 m 407 792 l 296 792 l 438 1097 l 576 1097 l 407 792 z "},"â":{"ha":694,"x_min":65,"x_max":625,"o":"m 363 -14 q 144 49 224 -14 q 65 222 65 113 q 153 396 65 338 q 414 454 242 454 l 539 454 l 539 364 l 415 364 q 176 224 176 364 q 225 118 176 157 q 358 79 274 79 q 445 90 403 79 q 517 119 488 101 l 486 56 l 486 469 q 475 578 486 540 q 431 628 464 615 q 336 642 399 642 q 258 638 296 642 q 183 624 221 633 q 104 600 146 615 l 104 696 q 216 726 153 715 q 347 736 279 736 q 496 713 442 736 q 572 631 550 689 q 594 472 594 574 l 594 31 q 488 -2 551 10 q 363 -14 424 -14 m 69 792 l 254 1097 l 440 1097 l 625 792 l 492 792 l 350 1038 l 344 1038 l 203 792 l 69 792 z "},"ä":{"ha":694,"x_min":65,"x_max":604,"o":"m 363 -14 q 144 49 224 -14 q 65 222 65 113 q 153 396 65 338 q 414 454 242 454 l 539 454 l 539 364 l 415 364 q 176 224 176 364 q 225 118 176 157 q 358 79 274 79 q 445 90 403 79 q 517 119 488 101 l 486 56 l 486 469 q 475 578 486 540 q 431 628 464 615 q 336 642 399 642 q 258 638 296 642 q 183 624 221 633 q 104 600 146 615 l 104 696 q 216 726 153 715 q 347 736 279 736 q 496 713 442 736 q 572 631 550 689 q 594 472 594 574 l 594 31 q 488 -2 551 10 q 363 -14 424 -14 m 189 808 q 117 834 144 808 q 90 903 90 860 q 117 972 90 947 q 189 997 144 997 q 260 972 233 997 q 288 903 288 947 q 260 834 288 860 q 189 808 233 808 m 506 808 q 434 834 461 808 q 407 903 407 860 q 434 972 407 947 q 506 997 461 997 q 577 972 550 997 q 604 903 604 947 q 577 834 604 860 q 506 808 550 808 z "},"à":{"ha":694,"x_min":65,"x_max":594,"o":"m 363 -14 q 144 49 224 -14 q 65 222 65 113 q 153 396 65 338 q 414 454 242 454 l 539 454 l 539 364 l 415 364 q 176 224 176 364 q 225 118 176 157 q 358 79 274 79 q 445 90 403 79 q 517 119 488 101 l 486 56 l 486 469 q 475 578 486 540 q 431 628 464 615 q 336 642 399 642 q 258 638 296 642 q 183 624 221 633 q 104 600 146 615 l 104 696 q 216 726 153 715 q 347 736 279 736 q 496 713 442 736 q 572 631 550 689 q 594 472 594 574 l 594 31 q 488 -2 551 10 q 363 -14 424 -14 m 288 792 l 118 1097 l 257 1097 l 399 792 l 288 792 z "},"å":{"ha":694,"x_min":65,"x_max":594,"o":"m 363 -14 q 144 49 224 -14 q 65 222 65 113 q 153 396 65 338 q 414 454 242 454 l 539 454 l 539 364 l 415 364 q 176 224 176 364 q 225 118 176 157 q 358 79 274 79 q 445 90 403 79 q 517 119 488 101 l 486 56 l 486 469 q 475 578 486 540 q 431 628 464 615 q 336 642 399 642 q 258 638 296 642 q 183 624 221 633 q 104 600 146 615 l 104 696 q 216 726 153 715 q 347 736 279 736 q 496 713 442 736 q 572 631 550 689 q 594 472 594 574 l 594 31 q 488 -2 551 10 q 363 -14 424 -14 m 347 797 q 248 824 293 797 q 176 895 203 850 q 150 994 150 940 q 176 1094 150 1050 q 248 1165 203 1139 q 347 1192 293 1192 q 447 1165 403 1192 q 518 1094 492 1139 q 544 994 544 1050 q 518 895 544 940 q 447 824 492 850 q 347 797 403 797 m 347 881 q 428 914 396 881 q 461 994 461 947 q 428 1076 461 1043 q 347 1108 396 1108 q 267 1076 300 1108 q 233 994 233 1043 q 267 914 233 947 q 347 881 300 881 z "},"ã":{"ha":694,"x_min":65,"x_max":611,"o":"m 363 -14 q 144 49 224 -14 q 65 222 65 113 q 153 396 65 338 q 414 454 242 454 l 539 454 l 539 364 l 415 364 q 176 224 176 364 q 225 118 176 157 q 358 79 274 79 q 445 90 403 79 q 517 119 488 101 l 486 56 l 486 469 q 475 578 486 540 q 431 628 464 615 q 336 642 399 642 q 258 638 296 642 q 183 624 221 633 q 104 600 146 615 l 104 696 q 216 726 153 715 q 347 736 279 736 q 496 713 442 736 q 572 631 550 689 q 594 472 594 574 l 594 31 q 488 -2 551 10 q 363 -14 424 -14 m 464 796 q 389 818 425 796 q 301 892 353 840 q 260 930 275 919 q 235 940 246 940 q 203 907 214 940 q 192 810 192 874 l 83 810 q 122 983 83 921 q 231 1046 161 1046 q 306 1024 269 1046 q 393 950 342 1003 q 434 913 419 924 q 460 901 449 901 q 492 935 481 901 q 503 1032 503 968 l 611 1032 q 572 858 611 921 q 464 796 533 796 z "},"æ":{"ha":694,"x_min":21,"x_max":672,"o":"m 224 -14 q 74 48 126 -14 q 21 222 21 110 q 80 397 21 338 q 257 456 139 456 l 329 456 l 329 363 l 265 363 q 153 329 189 363 q 118 224 118 296 q 148 117 118 156 q 229 79 178 79 q 272 89 254 79 q 301 117 290 99 l 301 469 q 292 577 301 540 q 259 628 283 614 q 188 642 235 642 q 128 635 154 642 q 68 613 101 629 l 68 711 q 128 730 96 724 q 199 736 160 736 q 303 716 265 736 q 360 650 340 696 l 365 650 q 417 715 385 694 q 496 736 449 736 q 597 701 558 736 q 654 589 636 665 q 672 389 672 513 l 672 314 l 372 314 l 372 404 l 597 404 l 582 372 l 582 385 q 573 537 582 481 q 544 617 564 593 q 490 642 525 642 q 437 617 457 642 q 408 537 417 593 q 399 385 399 481 l 399 338 q 410 181 399 236 q 452 103 422 125 q 536 81 482 81 q 592 86 565 81 q 649 104 619 92 l 649 8 q 589 -8 621 -1 q 528 -14 557 -14 q 440 6 475 -14 q 383 68 406 26 l 378 68 q 316 6 356 26 q 224 -14 276 -14 z "},"b":{"ha":694,"x_min":100,"x_max":628,"o":"m 328 -14 q 201 -1 260 -14 q 100 31 143 11 l 100 1014 l 208 1014 l 208 64 l 183 124 q 339 83 249 83 q 447 110 407 83 q 503 201 486 138 q 519 374 519 265 q 505 533 519 475 q 456 615 490 590 q 361 639 422 639 q 275 628 317 639 q 189 593 233 617 l 154 685 q 255 724 200 711 q 369 736 310 736 q 522 701 465 736 q 603 588 578 667 q 628 375 628 508 q 598 149 628 235 q 503 24 568 63 q 328 -14 438 -14 z "},"c":{"ha":694,"x_min":85,"x_max":571,"o":"m 406 -14 q 85 333 85 -14 l 85 389 q 407 736 85 736 q 571 714 497 736 l 571 424 l 463 424 l 463 697 l 515 618 q 454 634 485 629 q 393 639 424 639 q 243 578 290 639 q 196 382 196 517 l 196 340 q 217 190 196 247 q 288 108 239 133 q 417 83 336 83 q 493 89 456 83 q 571 107 531 94 l 571 8 q 492 -8 533 -1 q 406 -14 450 -14 z "},"ç":{"ha":694,"x_min":85,"x_max":571,"o":"m 314 -303 q 272 -301 292 -303 q 235 -293 253 -299 l 235 -201 q 268 -210 250 -207 q 306 -212 286 -212 q 340 -208 325 -212 q 363 -192 354 -203 q 371 -162 371 -181 q 334 -70 371 -118 q 228 25 297 -22 l 325 54 q 435 -57 397 4 q 474 -181 474 -118 q 455 -247 474 -219 q 401 -288 436 -274 q 314 -303 365 -303 m 406 -14 q 85 333 85 -14 l 85 389 q 407 736 85 736 q 571 714 497 736 l 571 424 l 463 424 l 463 697 l 515 618 q 454 634 485 629 q 393 639 424 639 q 243 578 290 639 q 196 382 196 517 l 196 340 q 217 190 196 247 q 288 108 239 133 q 417 83 336 83 q 493 89 456 83 q 571 107 531 94 l 571 8 q 492 -8 533 -1 q 406 -14 450 -14 z "},"d":{"ha":694,"x_min":67,"x_max":594,"o":"m 367 -14 q 192 24 258 -14 q 97 149 126 63 q 67 375 67 235 q 92 588 67 508 q 174 701 117 667 q 325 736 231 736 q 440 724 385 736 q 540 685 494 711 l 506 593 q 420 628 463 617 q 333 639 378 639 q 239 615 274 639 q 190 533 204 590 q 175 374 175 475 q 192 201 175 265 q 248 110 208 138 q 356 83 288 83 q 511 124 446 83 l 486 64 l 486 1014 l 594 1014 l 594 31 q 493 -1 551 11 q 367 -14 435 -14 z "},"ð":{"ha":694,"x_min":81,"x_max":611,"o":"m 353 -14 q 194 21 254 -14 q 108 134 135 56 q 81 340 81 213 q 106 533 81 461 q 188 635 131 604 q 339 667 244 667 q 453 654 399 667 q 554 615 508 642 l 519 524 q 434 558 476 547 q 347 569 392 569 q 253 549 288 569 q 203 478 218 528 q 189 339 189 428 q 205 188 189 243 q 257 108 221 132 q 356 83 293 83 q 437 114 406 83 q 483 209 468 144 q 499 372 499 274 q 415 788 499 642 q 150 975 331 935 l 150 1069 q 499 853 386 1025 q 610 361 611 681 q 582 150 610 233 q 497 26 554 67 q 353 -14 440 -14 m 90 694 l 90 794 l 604 1029 l 604 929 l 90 694 z "},"e":{"ha":694,"x_min":76,"x_max":618,"o":"m 397 -14 q 156 72 235 -14 q 76 333 76 157 l 76 389 q 142 652 76 568 q 347 736 208 736 q 553 652 488 736 q 618 389 618 568 l 618 314 l 131 314 l 131 404 l 535 404 l 510 372 l 510 385 q 472 581 510 521 q 347 642 433 642 q 223 581 261 642 q 185 385 185 521 l 185 338 q 206 185 185 242 q 275 105 226 129 q 406 81 324 81 q 488 86 446 81 q 579 104 531 92 l 579 8 q 490 -8 538 -1 q 397 -14 442 -14 z "},"é":{"ha":694,"x_min":76,"x_max":618,"o":"m 397 -14 q 156 72 235 -14 q 76 333 76 157 l 76 389 q 142 652 76 568 q 347 736 208 736 q 553 652 488 736 q 618 389 618 568 l 618 314 l 131 314 l 131 404 l 535 404 l 510 372 l 510 385 q 472 581 510 521 q 347 642 433 642 q 223 581 261 642 q 185 385 185 521 l 185 338 q 206 185 185 242 q 275 105 226 129 q 406 81 324 81 q 488 86 446 81 q 579 104 531 92 l 579 8 q 490 -8 538 -1 q 397 -14 442 -14 m 407 792 l 296 792 l 438 1097 l 576 1097 l 407 792 z "},"ê":{"ha":694,"x_min":69,"x_max":625,"o":"m 397 -14 q 156 72 235 -14 q 76 333 76 157 l 76 389 q 142 652 76 568 q 347 736 208 736 q 553 652 488 736 q 618 389 618 568 l 618 314 l 131 314 l 131 404 l 535 404 l 510 372 l 510 385 q 472 581 510 521 q 347 642 433 642 q 223 581 261 642 q 185 385 185 521 l 185 338 q 206 185 185 242 q 275 105 226 129 q 406 81 324 81 q 488 86 446 81 q 579 104 531 92 l 579 8 q 490 -8 538 -1 q 397 -14 442 -14 m 69 792 l 254 1097 l 440 1097 l 625 792 l 492 792 l 350 1038 l 344 1038 l 203 792 l 69 792 z "},"ë":{"ha":694,"x_min":76,"x_max":618,"o":"m 397 -14 q 156 72 235 -14 q 76 333 76 157 l 76 389 q 142 652 76 568 q 347 736 208 736 q 553 652 488 736 q 618 389 618 568 l 618 314 l 131 314 l 131 404 l 535 404 l 510 372 l 510 385 q 472 581 510 521 q 347 642 433 642 q 223 581 261 642 q 185 385 185 521 l 185 338 q 206 185 185 242 q 275 105 226 129 q 406 81 324 81 q 488 86 446 81 q 579 104 531 92 l 579 8 q 490 -8 538 -1 q 397 -14 442 -14 m 189 808 q 117 834 144 808 q 90 903 90 860 q 117 972 90 947 q 189 997 144 997 q 260 972 233 997 q 288 903 288 947 q 260 834 288 860 q 189 808 233 808 m 506 808 q 434 834 461 808 q 407 903 407 860 q 434 972 407 947 q 506 997 461 997 q 577 972 550 997 q 604 903 604 947 q 577 834 604 860 q 506 808 550 808 z "},"è":{"ha":694,"x_min":76,"x_max":618,"o":"m 397 -14 q 156 72 235 -14 q 76 333 76 157 l 76 389 q 142 652 76 568 q 347 736 208 736 q 553 652 488 736 q 618 389 618 568 l 618 314 l 131 314 l 131 404 l 535 404 l 510 372 l 510 385 q 472 581 510 521 q 347 642 433 642 q 223 581 261 642 q 185 385 185 521 l 185 338 q 206 185 185 242 q 275 105 226 129 q 406 81 324 81 q 488 86 446 81 q 579 104 531 92 l 579 8 q 490 -8 538 -1 q 397 -14 442 -14 m 288 792 l 118 1097 l 257 1097 l 399 792 l 288 792 z "},"f":{"ha":694,"x_min":49,"x_max":646,"o":"m 258 0 l 258 597 l 49 597 l 49 694 l 258 694 l 258 829 q 317 1010 258 950 q 493 1069 375 1069 q 568 1064 529 1069 q 646 1047 607 1058 l 646 949 q 572 967 607 963 q 510 972 538 972 q 403 938 436 972 q 369 825 369 904 l 369 694 l 646 694 l 646 597 l 369 597 l 369 0 l 258 0 z "},"g":{"ha":694,"x_min":67,"x_max":594,"o":"m 115 -208 q 396 -145 306 -208 q 486 53 486 -82 l 486 667 l 514 604 q 435 631 474 624 q 353 639 396 639 q 246 617 285 639 q 191 541 207 594 q 175 393 175 488 q 192 231 175 290 q 249 148 208 172 q 360 124 289 124 q 438 131 401 124 q 517 153 475 139 l 546 56 q 465 35 508 43 q 367 28 422 28 q 191 64 257 28 q 96 181 125 100 q 67 394 67 261 q 95 596 67 521 q 190 703 124 671 q 365 736 256 736 q 594 692 501 736 l 594 60 q 476 -215 594 -125 q 115 -306 357 -306 l 115 -208 z "},"h":{"ha":694,"x_min":88,"x_max":607,"o":"m 499 467 q 485 572 499 535 q 437 624 471 610 q 339 639 403 639 q 253 630 292 639 q 165 597 214 621 l 143 694 q 238 727 190 718 q 351 736 286 736 q 506 713 450 736 q 584 631 561 689 q 607 472 607 574 l 607 0 l 499 0 l 499 467 m 88 0 l 88 1014 l 196 1014 l 196 0 l 88 0 z "},"i":{"ha":694,"x_min":111,"x_max":493,"o":"m 361 0 l 361 625 l 111 625 l 111 722 l 472 722 l 472 0 l 361 0 m 394 853 q 323 878 350 853 q 296 947 296 904 q 323 1017 296 992 q 394 1042 350 1042 q 466 1017 439 1042 q 493 947 493 992 q 466 878 493 904 q 394 853 439 853 z "},"í":{"ha":694,"x_min":111,"x_max":646,"o":"m 361 0 l 361 625 l 111 625 l 111 722 l 472 722 l 472 0 l 361 0 m 476 792 l 365 792 l 507 1097 l 646 1097 l 476 792 z "},"î":{"ha":694,"x_min":111,"x_max":694,"o":"m 361 0 l 361 625 l 111 625 l 111 722 l 472 722 l 472 0 l 361 0 m 139 792 l 324 1097 l 510 1097 l 694 792 l 561 792 l 419 1038 l 414 1038 l 272 792 l 139 792 z "},"ï":{"ha":694,"x_min":111,"x_max":674,"o":"m 361 0 l 361 625 l 111 625 l 111 722 l 472 722 l 472 0 l 361 0 m 258 808 q 187 834 214 808 q 160 903 160 860 q 187 972 160 947 q 258 997 214 997 q 330 972 303 997 q 357 903 357 947 q 330 834 357 860 q 258 808 303 808 m 575 808 q 503 834 531 808 q 476 903 476 860 q 503 972 476 947 q 575 997 531 997 q 647 972 619 997 q 674 903 674 947 q 647 834 674 860 q 575 808 619 808 z "},"ì":{"ha":694,"x_min":111,"x_max":472,"o":"m 361 0 l 361 625 l 111 625 l 111 722 l 472 722 l 472 0 l 361 0 m 357 792 l 188 1097 l 326 1097 l 468 792 l 357 792 z "},"j":{"ha":694,"x_min":111,"x_max":493,"o":"m 111 -208 q 301 -146 240 -208 q 361 51 361 -83 l 361 625 l 111 625 l 111 722 l 472 722 l 472 60 q 383 -215 472 -125 q 111 -306 293 -306 l 111 -208 m 394 853 q 323 878 350 853 q 296 947 296 904 q 323 1017 296 992 q 394 1042 350 1042 q 466 1017 439 1042 q 493 947 493 992 q 466 878 493 904 q 394 853 439 853 z "},"k":{"ha":694,"x_min":94,"x_max":664,"o":"m 94 0 l 94 1014 l 203 1014 l 203 413 l 208 413 l 521 722 l 654 722 l 310 375 l 664 0 l 531 0 l 208 336 l 203 336 l 203 0 l 94 0 z "},"l":{"ha":694,"x_min":56,"x_max":639,"o":"m 490 -14 q 327 36 376 -14 q 278 204 278 86 l 278 917 l 56 917 l 56 1014 l 389 1014 l 389 228 q 416 115 389 146 q 515 83 443 83 q 581 90 551 83 q 639 107 611 96 l 639 10 q 566 -8 603 -3 q 490 -14 529 -14 z "},"m":{"ha":694,"x_min":42,"x_max":653,"o":"m 42 0 l 42 694 q 121 726 78 715 q 218 736 164 736 q 290 727 263 736 q 347 694 318 718 q 415 727 383 718 q 490 736 446 736 q 618 692 583 736 q 653 532 653 649 l 653 0 l 547 0 l 547 533 q 540 599 547 576 q 517 630 533 621 q 468 639 500 639 q 431 633 447 639 q 400 617 415 628 l 400 0 l 294 0 l 294 601 q 286 622 294 614 q 263 635 278 631 q 225 639 247 639 q 147 617 178 639 l 147 0 l 42 0 z "},"n":{"ha":694,"x_min":88,"x_max":607,"o":"m 88 692 q 200 726 140 715 q 335 736 260 736 q 499 713 440 736 q 583 631 558 689 q 607 472 607 574 l 607 0 l 499 0 l 499 467 q 485 572 499 535 q 435 624 471 610 q 336 639 400 639 q 276 635 304 639 q 221 622 249 631 q 160 594 193 613 l 196 664 l 196 0 l 88 0 l 88 692 z "},"ñ":{"ha":694,"x_min":83,"x_max":611,"o":"m 88 692 q 200 726 140 715 q 335 736 260 736 q 499 713 440 736 q 583 631 558 689 q 607 472 607 574 l 607 0 l 499 0 l 499 467 q 485 572 499 535 q 435 624 471 610 q 336 639 400 639 q 276 635 304 639 q 221 622 249 631 q 160 594 193 613 l 196 664 l 196 0 l 88 0 l 88 692 m 464 796 q 389 818 425 796 q 301 892 353 840 q 260 930 275 919 q 235 940 246 940 q 203 907 214 940 q 192 810 192 874 l 83 810 q 122 983 83 921 q 231 1046 161 1046 q 306 1024 269 1046 q 393 950 342 1003 q 434 913 419 924 q 460 901 449 901 q 492 935 481 901 q 503 1032 503 968 l 611 1032 q 572 858 611 921 q 464 796 533 796 z "},"o":{"ha":694,"x_min":69,"x_max":625,"o":"m 347 -14 q 137 70 204 -14 q 69 333 69 154 l 69 389 q 137 652 69 568 q 347 736 204 736 q 558 652 492 736 q 625 389 625 568 l 625 333 q 558 70 625 154 q 347 -14 492 -14 m 347 83 q 476 143 438 83 q 514 340 514 203 l 514 382 q 476 579 514 519 q 347 639 438 639 q 219 579 258 639 q 181 382 181 519 l 181 340 q 219 143 181 203 q 347 83 258 83 z "},"ó":{"ha":694,"x_min":69,"x_max":625,"o":"m 347 -14 q 137 70 204 -14 q 69 333 69 154 l 69 389 q 137 652 69 568 q 347 736 204 736 q 558 652 492 736 q 625 389 625 568 l 625 333 q 558 70 625 154 q 347 -14 492 -14 m 347 83 q 476 143 438 83 q 514 340 514 203 l 514 382 q 476 579 514 519 q 347 639 438 639 q 219 579 258 639 q 181 382 181 519 l 181 340 q 219 143 181 203 q 347 83 258 83 m 407 792 l 296 792 l 438 1097 l 576 1097 l 407 792 z "},"ô":{"ha":694,"x_min":69,"x_max":625,"o":"m 347 -14 q 137 70 204 -14 q 69 333 69 154 l 69 389 q 137 652 69 568 q 347 736 204 736 q 558 652 492 736 q 625 389 625 568 l 625 333 q 558 70 625 154 q 347 -14 492 -14 m 347 83 q 476 143 438 83 q 514 340 514 203 l 514 382 q 476 579 514 519 q 347 639 438 639 q 219 579 258 639 q 181 382 181 519 l 181 340 q 219 143 181 203 q 347 83 258 83 m 69 792 l 254 1097 l 440 1097 l 625 792 l 492 792 l 350 1038 l 344 1038 l 203 792 l 69 792 z "},"ö":{"ha":694,"x_min":69,"x_max":625,"o":"m 347 -14 q 137 70 204 -14 q 69 333 69 154 l 69 389 q 137 652 69 568 q 347 736 204 736 q 558 652 492 736 q 625 389 625 568 l 625 333 q 558 70 625 154 q 347 -14 492 -14 m 347 83 q 476 143 438 83 q 514 340 514 203 l 514 382 q 476 579 514 519 q 347 639 438 639 q 219 579 258 639 q 181 382 181 519 l 181 340 q 219 143 181 203 q 347 83 258 83 m 189 808 q 117 834 144 808 q 90 903 90 860 q 117 972 90 947 q 189 997 144 997 q 260 972 233 997 q 288 903 288 947 q 260 834 288 860 q 189 808 233 808 m 506 808 q 434 834 461 808 q 407 903 407 860 q 434 972 407 947 q 506 997 461 997 q 577 972 550 997 q 604 903 604 947 q 577 834 604 860 q 506 808 550 808 z "},"ò":{"ha":694,"x_min":69,"x_max":625,"o":"m 347 -14 q 137 70 204 -14 q 69 333 69 154 l 69 389 q 137 652 69 568 q 347 736 204 736 q 558 652 492 736 q 625 389 625 568 l 625 333 q 558 70 625 154 q 347 -14 492 -14 m 347 83 q 476 143 438 83 q 514 340 514 203 l 514 382 q 476 579 514 519 q 347 639 438 639 q 219 579 258 639 q 181 382 181 519 l 181 340 q 219 143 181 203 q 347 83 258 83 m 288 792 l 118 1097 l 257 1097 l 399 792 l 288 792 z "},"ø":{"ha":694,"x_min":53,"x_max":642,"o":"m 53 -14 l 539 736 l 642 736 l 156 -14 l 53 -14 m 347 -14 q 137 70 204 -14 q 69 333 69 154 l 69 389 q 137 652 69 568 q 347 736 204 736 q 558 652 492 736 q 625 389 625 568 l 625 333 q 558 70 625 154 q 347 -14 492 -14 m 347 83 q 476 143 438 83 q 514 340 514 203 l 514 382 q 476 579 514 519 q 347 639 438 639 q 219 579 258 639 q 181 382 181 519 l 181 340 q 219 143 181 203 q 347 83 258 83 z "},"õ":{"ha":694,"x_min":69,"x_max":625,"o":"m 347 -14 q 137 70 204 -14 q 69 333 69 154 l 69 389 q 137 652 69 568 q 347 736 204 736 q 558 652 492 736 q 625 389 625 568 l 625 333 q 558 70 625 154 q 347 -14 492 -14 m 347 83 q 476 143 438 83 q 514 340 514 203 l 514 382 q 476 579 514 519 q 347 639 438 639 q 219 579 258 639 q 181 382 181 519 l 181 340 q 219 143 181 203 q 347 83 258 83 m 464 796 q 389 818 425 796 q 301 892 353 840 q 260 930 275 919 q 235 940 246 940 q 203 907 214 940 q 192 810 192 874 l 83 810 q 122 983 83 921 q 231 1046 161 1046 q 306 1024 269 1046 q 393 950 342 1003 q 434 913 419 924 q 460 901 449 901 q 492 935 481 901 q 503 1032 503 968 l 611 1032 q 572 858 611 921 q 464 796 533 796 z "},"p":{"ha":694,"x_min":100,"x_max":628,"o":"m 100 692 q 329 736 196 736 q 506 701 440 736 q 599 588 571 667 q 628 375 628 510 q 598 149 628 235 q 502 25 568 64 q 328 -14 436 -14 q 232 -6 278 -14 q 150 15 186 1 l 181 114 q 260 90 221 97 q 338 82 299 82 q 447 109 407 82 q 503 200 486 136 q 519 374 519 264 q 503 534 519 476 q 449 615 488 592 q 343 639 411 639 q 262 631 301 639 q 182 604 222 624 l 208 667 l 208 -292 l 100 -292 l 100 692 z "},"þ":{"ha":694,"x_min":100,"x_max":628,"o":"m 328 -14 q 150 15 228 -14 l 181 114 q 258 90 221 99 q 338 82 296 82 q 447 108 407 82 q 503 194 486 133 q 519 361 519 256 q 503 528 519 467 q 447 615 486 589 q 338 640 407 640 q 258 632 296 640 q 181 608 221 624 l 150 707 q 328 736 228 736 q 502 699 436 736 q 598 578 568 661 q 628 361 628 496 q 598 144 628 226 q 502 24 568 61 q 328 -14 436 -14 m 100 -292 l 100 1014 l 208 1014 l 208 -292 l 100 -292 z "},"q":{"ha":694,"x_min":67,"x_max":594,"o":"m 486 -292 l 486 667 l 513 604 q 433 631 472 624 q 351 639 393 639 q 245 615 283 639 q 191 534 207 592 q 175 374 175 476 q 192 200 175 264 q 249 109 208 136 q 357 82 289 82 q 435 90 396 82 q 514 114 474 97 l 544 15 q 463 -6 508 1 q 367 -14 417 -14 q 192 25 258 -14 q 97 149 126 64 q 67 375 67 235 q 95 588 67 510 q 190 701 124 667 q 365 736 256 736 q 594 692 499 736 l 594 -292 l 486 -292 z "},"r":{"ha":694,"x_min":175,"x_max":619,"o":"m 175 660 q 322 700 243 683 q 477 726 400 717 q 619 736 554 736 l 619 639 q 435 622 535 639 q 258 576 336 604 l 286 629 l 286 0 l 175 0 l 175 660 z "},"s":{"ha":694,"x_min":90,"x_max":604,"o":"m 322 -14 q 210 -5 263 -14 q 107 24 158 4 l 107 122 q 213 93 161 103 q 318 83 265 83 q 450 110 407 83 q 493 190 493 136 q 476 240 493 218 q 422 283 458 263 q 324 325 385 304 q 144 417 197 365 q 90 550 90 469 q 158 691 90 646 q 368 736 225 736 q 465 730 417 736 q 583 706 514 724 l 583 493 l 475 493 l 475 688 l 525 621 q 440 635 474 632 q 375 639 407 639 q 244 616 288 639 q 201 546 201 593 q 218 497 201 519 q 272 453 235 474 q 374 410 310 432 q 553 316 501 367 q 604 185 604 265 q 534 35 604 85 q 322 -14 464 -14 z "},"ß":{"ha":694,"x_min":60,"x_max":671,"o":"m 410 -14 q 342 -9 379 -14 q 271 7 304 -4 l 271 108 q 328 92 300 97 q 388 86 357 86 q 515 131 474 86 q 557 271 557 176 q 511 410 557 368 q 361 453 465 453 l 319 453 l 319 568 l 354 568 q 449 612 418 568 q 479 744 479 656 q 442 883 479 839 q 325 928 404 928 q 208 878 246 928 q 171 726 171 829 l 171 0 l 60 0 l 60 740 q 124 958 60 889 q 325 1028 189 1028 q 526 960 461 1028 q 590 751 590 893 q 567 617 590 671 q 494 531 543 563 l 494 525 q 628 445 586 507 q 671 272 671 383 q 410 -14 671 -14 z "},"t":{"ha":694,"x_min":38,"x_max":607,"o":"m 447 -14 q 272 36 325 -14 q 218 204 218 86 l 218 625 l 38 625 l 38 722 l 218 722 l 218 958 l 329 958 l 329 722 l 607 722 l 607 625 l 329 625 l 329 228 q 359 115 329 146 q 469 83 389 83 q 542 90 508 83 q 607 107 576 96 l 607 10 q 528 -8 568 -3 q 447 -14 489 -14 z "},"u":{"ha":694,"x_min":90,"x_max":604,"o":"m 360 -14 q 198 10 257 -14 q 115 91 139 33 q 90 250 90 149 l 90 722 l 199 722 l 199 256 q 213 151 199 189 q 262 99 226 114 q 361 83 297 83 q 422 88 394 83 q 476 101 449 92 q 535 128 503 111 l 496 58 l 496 722 l 604 722 l 604 31 q 360 -14 503 -14 z "},"ú":{"ha":694,"x_min":90,"x_max":604,"o":"m 360 -14 q 198 10 257 -14 q 115 91 139 33 q 90 250 90 149 l 90 722 l 199 722 l 199 256 q 213 151 199 189 q 262 99 226 114 q 361 83 297 83 q 422 88 394 83 q 476 101 449 92 q 535 128 503 111 l 496 58 l 496 722 l 604 722 l 604 31 q 360 -14 503 -14 m 407 792 l 296 792 l 438 1097 l 576 1097 l 407 792 z "},"û":{"ha":694,"x_min":69,"x_max":625,"o":"m 360 -14 q 198 10 257 -14 q 115 91 139 33 q 90 250 90 149 l 90 722 l 199 722 l 199 256 q 213 151 199 189 q 262 99 226 114 q 361 83 297 83 q 422 88 394 83 q 476 101 449 92 q 535 128 503 111 l 496 58 l 496 722 l 604 722 l 604 31 q 360 -14 503 -14 m 69 792 l 254 1097 l 440 1097 l 625 792 l 492 792 l 350 1038 l 344 1038 l 203 792 l 69 792 z "},"ü":{"ha":694,"x_min":90,"x_max":604,"o":"m 360 -14 q 198 10 257 -14 q 115 91 139 33 q 90 250 90 149 l 90 722 l 199 722 l 199 256 q 213 151 199 189 q 262 99 226 114 q 361 83 297 83 q 422 88 394 83 q 476 101 449 92 q 535 128 503 111 l 496 58 l 496 722 l 604 722 l 604 31 q 360 -14 503 -14 m 189 808 q 117 834 144 808 q 90 903 90 860 q 117 972 90 947 q 189 997 144 997 q 260 972 233 997 q 288 903 288 947 q 260 834 288 860 q 189 808 233 808 m 506 808 q 434 834 461 808 q 407 903 407 860 q 434 972 407 947 q 506 997 461 997 q 577 972 550 997 q 604 903 604 947 q 577 834 604 860 q 506 808 550 808 z "},"ù":{"ha":694,"x_min":90,"x_max":604,"o":"m 360 -14 q 198 10 257 -14 q 115 91 139 33 q 90 250 90 149 l 90 722 l 199 722 l 199 256 q 213 151 199 189 q 262 99 226 114 q 361 83 297 83 q 422 88 394 83 q 476 101 449 92 q 535 128 503 111 l 496 58 l 496 722 l 604 722 l 604 31 q 360 -14 503 -14 m 288 792 l 118 1097 l 257 1097 l 399 792 l 288 792 z "},"v":{"ha":694,"x_min":35,"x_max":660,"o":"m 281 0 l 35 722 l 153 722 l 344 126 l 350 126 l 542 722 l 660 722 l 414 0 l 281 0 z "},"w":{"ha":694,"x_min":14,"x_max":681,"o":"m 115 0 l 14 722 l 125 722 l 194 83 l 200 83 l 263 722 l 432 722 l 494 83 l 500 83 l 569 722 l 681 722 l 579 0 l 413 0 l 350 646 l 344 646 l 282 0 l 115 0 z "},"x":{"ha":694,"x_min":63,"x_max":632,"o":"m 63 0 l 267 361 l 63 722 l 181 722 l 344 433 l 350 433 l 514 722 l 632 722 l 428 361 l 632 0 l 513 0 l 350 289 l 344 289 l 182 0 l 63 0 z "},"y":{"ha":694,"x_min":35,"x_max":660,"o":"m 76 -208 q 187 -184 142 -208 q 263 -107 232 -160 q 311 29 293 -54 l 317 -26 l 35 722 l 153 722 l 353 153 l 358 153 l 542 722 l 660 722 l 401 -40 q 330 -185 372 -125 q 226 -275 288 -244 q 76 -306 164 -306 l 76 -208 z "},"ý":{"ha":694,"x_min":35,"x_max":660,"o":"m 76 -208 q 187 -184 142 -208 q 263 -107 232 -160 q 311 29 293 -54 l 317 -26 l 35 722 l 153 722 l 353 153 l 358 153 l 542 722 l 660 722 l 401 -40 q 330 -185 372 -125 q 226 -275 288 -244 q 76 -306 164 -306 l 76 -208 m 407 792 l 296 792 l 438 1097 l 576 1097 l 407 792 z "},"ÿ":{"ha":694,"x_min":35,"x_max":660,"o":"m 76 -208 q 187 -184 142 -208 q 263 -107 232 -160 q 311 29 293 -54 l 317 -26 l 35 722 l 153 722 l 353 153 l 358 153 l 542 722 l 660 722 l 401 -40 q 330 -185 372 -125 q 226 -275 288 -244 q 76 -306 164 -306 l 76 -208 m 189 808 q 117 834 144 808 q 90 903 90 860 q 117 972 90 947 q 189 997 144 997 q 260 972 233 997 q 288 903 288 947 q 260 834 288 860 q 189 808 233 808 m 506 808 q 434 834 461 808 q 407 903 407 860 q 434 972 407 947 q 506 997 461 997 q 577 972 550 997 q 604 903 604 947 q 577 834 604 860 q 506 808 550 808 z "},"z":{"ha":694,"x_min":104,"x_max":590,"o":"m 104 0 l 104 97 l 461 619 l 461 625 l 104 625 l 104 722 l 590 722 l 590 625 l 233 103 l 233 97 l 590 97 l 590 0 l 104 0 z "},"ª":{"ha":694,"x_min":82,"x_max":576,"o":"m 360 396 q 156 449 229 396 q 82 594 82 501 q 165 740 82 690 q 407 789 247 789 l 525 789 l 525 699 l 408 699 q 244 673 297 699 q 190 594 190 647 q 234 515 190 543 q 357 488 278 488 q 432 495 397 488 q 496 517 467 503 l 469 457 l 469 801 q 458 883 469 856 q 413 922 446 911 q 317 932 381 932 q 251 928 281 932 q 191 918 221 925 q 124 897 161 911 l 124 992 q 215 1017 165 1008 q 328 1025 265 1025 q 478 1005 424 1025 q 554 937 532 985 q 576 804 576 889 l 576 432 q 476 406 536 415 q 360 396 417 396 z "},"º":{"ha":694,"x_min":81,"x_max":614,"o":"m 347 396 q 145 466 210 396 q 81 688 81 536 l 81 733 q 145 955 81 885 q 347 1025 210 1025 q 549 955 485 1025 q 614 733 614 885 l 614 688 q 549 466 614 536 q 347 396 485 396 m 347 492 q 467 538 431 492 q 503 693 503 583 l 503 728 q 467 884 503 839 q 347 929 431 929 q 228 884 264 929 q 192 728 192 839 l 192 693 q 228 538 192 583 q 347 492 264 492 z "},"¹":{"ha":694,"x_min":124,"x_max":428,"o":"m 319 569 l 319 901 l 314 901 l 124 797 l 124 897 l 344 1014 l 428 1014 l 428 569 l 319 569 z "},"²":{"ha":694,"x_min":156,"x_max":506,"o":"m 156 653 q 299 765 249 722 q 370 834 350 807 q 390 882 390 861 q 366 919 390 908 q 288 931 342 931 q 223 926 253 931 q 156 911 193 922 l 156 999 q 234 1015 188 1008 q 319 1021 281 1021 q 452 989 404 1021 q 500 900 500 957 q 489 846 500 874 q 456 788 478 818 q 402 726 435 758 q 325 658 369 693 l 325 653 l 506 653 l 506 569 l 156 569 l 156 653 z "},"³":{"ha":694,"x_min":151,"x_max":510,"o":"m 299 563 q 224 567 263 563 q 151 576 185 571 l 151 661 q 233 649 200 653 q 292 646 265 646 q 404 701 404 646 q 376 742 404 729 q 282 754 347 754 l 213 754 l 213 831 l 344 925 l 344 931 l 151 931 l 151 1014 l 500 1014 l 500 931 l 364 832 l 364 826 l 364 826 q 470 792 431 826 q 510 699 510 758 q 299 563 510 563 z "},"½":{"ha":694,"x_min":56,"x_max":639,"o":"m 251 576 l 251 908 l 246 908 l 56 804 l 56 904 l 276 1021 l 360 1021 l 360 576 l 251 576 m 275 76 q 419 188 368 146 q 490 258 469 231 q 510 306 510 285 q 485 343 510 332 q 407 354 461 354 q 342 350 372 354 q 275 335 313 346 l 275 422 q 353 438 307 432 q 439 444 400 444 q 572 413 524 444 q 619 324 619 381 q 608 269 619 297 q 576 212 597 242 q 522 149 554 182 q 444 82 489 117 l 444 76 l 625 76 l 625 -7 l 275 -7 l 275 76 m 56 301 l 56 407 l 639 713 l 639 607 l 56 301 z "},"¼":{"ha":694,"x_min":56,"x_max":639,"o":"m 251 576 l 251 908 l 246 908 l 56 804 l 56 904 l 276 1021 l 360 1021 l 360 576 l 251 576 m 454 -7 l 454 64 l 188 64 l 188 147 l 467 438 l 561 438 l 561 147 l 632 147 l 632 64 l 561 64 l 561 -7 l 454 -7 m 299 140 l 461 140 l 461 310 l 456 310 l 299 146 l 299 140 m 56 301 l 56 407 l 639 713 l 639 607 l 56 301 z "},"¾":{"ha":694,"x_min":56,"x_max":639,"o":"m 454 -7 l 454 64 l 188 64 l 188 147 l 467 438 l 561 438 l 561 147 l 632 147 l 632 64 l 561 64 l 561 -7 l 454 -7 m 299 140 l 461 140 l 461 310 l 456 310 l 299 146 l 299 140 m 225 569 q 150 574 189 569 q 78 583 111 578 l 78 668 q 159 656 126 660 q 218 653 192 653 q 331 708 331 653 q 302 749 331 736 q 208 761 274 761 l 139 761 l 139 838 l 271 932 l 271 938 l 78 938 l 78 1021 l 426 1021 l 426 938 l 290 839 l 290 833 l 290 833 q 397 799 357 833 q 436 706 436 765 q 225 569 436 569 m 56 301 l 56 407 l 639 713 l 639 607 l 56 301 z "},".":{"ha":694,"x_min":239,"x_max":456,"o":"m 347 -14 q 269 15 299 -14 q 239 92 239 44 q 269 169 239 140 q 347 197 299 197 q 426 169 396 197 q 456 92 456 140 q 426 15 456 44 q 347 -14 396 -14 z "},",":{"ha":694,"x_min":196,"x_max":454,"o":"m 196 -236 l 324 197 l 454 197 l 299 -236 l 196 -236 z "},":":{"ha":694,"x_min":239,"x_max":456,"o":"m 347 525 q 269 554 299 525 q 239 631 239 583 q 269 708 239 679 q 347 736 299 736 q 426 708 396 736 q 456 631 456 679 q 426 554 456 583 q 347 525 396 525 m 347 -14 q 269 15 299 -14 q 239 92 239 44 q 269 169 239 140 q 347 197 299 197 q 426 169 396 197 q 456 92 456 140 q 426 15 456 44 q 347 -14 396 -14 z "},";":{"ha":694,"x_min":168,"x_max":460,"o":"m 168 -236 l 296 197 l 426 197 l 271 -236 l 168 -236 m 351 525 q 273 554 303 525 q 243 631 243 583 q 273 708 243 679 q 351 736 303 736 q 430 708 400 736 q 460 631 460 679 q 430 554 460 583 q 351 525 400 525 z "},"!":{"ha":694,"x_min":249,"x_max":446,"o":"m 292 306 l 278 1014 l 417 1014 l 403 306 l 292 306 m 347 -14 q 276 12 303 -14 q 249 81 249 38 q 276 150 249 125 q 347 175 303 175 q 419 150 392 175 q 446 81 446 125 q 419 12 446 38 q 347 -14 392 -14 z "},"¡":{"ha":694,"x_min":249,"x_max":446,"o":"m 292 417 l 403 417 l 417 -292 l 278 -292 l 292 417 m 347 736 q 419 711 392 736 q 446 642 446 686 q 419 573 446 599 q 347 547 392 547 q 276 573 303 547 q 249 642 249 599 q 276 711 249 686 q 347 736 303 736 z "},"?":{"ha":694,"x_min":50,"x_max":647,"o":"m 253 306 q 281 456 253 388 q 396 597 310 524 q 476 672 447 640 q 516 733 504 704 q 528 793 528 761 q 478 895 528 863 q 318 928 428 928 q 183 914 246 928 q 50 871 119 900 l 50 975 q 192 1015 115 1001 q 344 1028 268 1028 q 572 973 497 1028 q 647 804 647 918 q 633 716 647 757 q 583 633 618 675 q 489 539 549 592 q 415 460 440 499 q 379 385 389 422 q 369 306 369 347 l 253 306 m 311 -14 q 240 12 267 -14 q 213 81 213 38 q 240 150 213 125 q 311 175 267 175 q 383 150 356 175 q 410 81 410 125 q 383 12 410 38 q 311 -14 356 -14 z "},"¿":{"ha":694,"x_min":47,"x_max":644,"o":"m 442 417 q 413 267 442 336 q 299 125 385 199 q 219 50 249 82 q 178 -10 190 18 q 167 -71 167 -39 q 217 -173 167 -140 q 376 -206 267 -206 q 513 -192 450 -206 q 644 -149 575 -178 l 644 -253 q 504 -292 581 -279 q 350 -306 428 -306 q 122 -251 197 -306 q 47 -82 47 -196 q 62 7 47 -33 q 111 90 76 47 q 206 183 146 132 q 280 263 254 225 q 315 338 306 300 q 325 417 325 376 l 442 417 m 383 736 q 455 711 428 736 q 482 642 482 686 q 455 573 482 599 q 383 547 428 547 q 312 573 339 547 q 285 642 285 599 q 312 711 285 686 q 383 736 339 736 z "},"·":{"ha":694,"x_min":239,"x_max":456,"o":"m 347 299 q 269 328 299 299 q 239 404 239 357 q 269 481 239 453 q 347 510 299 510 q 426 481 396 510 q 456 404 456 453 q 426 328 456 357 q 347 299 396 299 z "},"*":{"ha":694,"x_min":42,"x_max":653,"o":"m 207 471 l 128 526 l 272 722 l 42 793 l 71 885 l 301 810 l 299 1050 l 396 1050 l 393 810 l 624 885 l 653 793 l 422 722 l 567 526 l 488 471 l 347 668 l 207 471 z "},"#":{"ha":694,"x_min":49,"x_max":646,"o":"m 103 0 l 135 250 l 49 250 l 49 347 l 147 347 l 193 696 l 101 696 l 101 793 l 206 793 l 235 1014 l 343 1014 l 314 793 l 456 793 l 485 1014 l 593 1014 l 564 793 l 646 793 l 646 696 l 551 696 l 506 347 l 594 347 l 594 250 l 493 250 l 461 0 l 353 0 l 385 250 l 243 250 l 211 0 l 103 0 m 250 299 l 207 347 l 447 347 l 392 299 l 449 744 l 492 696 l 251 696 l 307 744 l 250 299 z "},"/":{"ha":694,"x_min":46,"x_max":649,"o":"m 46 -56 l 533 1069 l 649 1069 l 161 -56 l 46 -56 z "},"\\":{"ha":694,"x_min":46,"x_max":649,"o":"m 649 -56 l 533 -56 l 46 1069 l 161 1069 l 649 -56 z "},"(":{"ha":694,"x_min":236,"x_max":542,"o":"m 432 -153 q 285 132 335 -22 q 236 458 236 286 q 285 785 236 632 q 432 1069 335 939 l 542 1069 q 397 783 444 932 q 350 458 350 633 q 397 134 350 283 q 542 -153 444 -15 l 432 -153 z "},")":{"ha":694,"x_min":153,"x_max":458,"o":"m 263 -153 l 153 -153 q 298 134 251 -15 q 344 458 344 283 q 298 783 344 633 q 153 1069 251 932 l 263 1069 q 409 785 360 939 q 458 458 458 632 q 409 132 458 286 q 263 -153 360 -22 z "},"{":{"ha":694,"x_min":76,"x_max":581,"o":"m 447 -153 q 302 -103 347 -153 q 257 56 257 -54 l 257 236 q 228 363 257 319 q 142 407 199 407 l 76 407 l 76 510 l 142 510 q 228 553 199 510 q 257 681 257 597 l 257 861 q 302 1021 257 972 q 447 1069 347 1069 l 581 1069 l 581 972 l 497 972 q 415 959 444 972 q 374 913 386 946 q 363 819 363 879 l 363 669 q 335 538 363 589 q 250 461 307 486 l 250 456 q 335 380 307 431 q 363 247 363 329 l 363 97 q 374 4 363 38 q 415 -42 386 -29 q 497 -56 444 -56 l 581 -56 l 581 -153 l 447 -153 z "},"}":{"ha":694,"x_min":114,"x_max":618,"o":"m 247 -153 l 114 -153 l 114 -56 l 197 -56 q 279 -42 250 -56 q 320 4 308 -29 q 332 97 332 38 l 332 247 q 360 380 332 329 q 444 456 388 431 l 444 461 q 360 538 388 486 q 332 669 332 589 l 332 819 q 320 913 332 879 q 279 959 308 946 q 197 972 250 972 l 114 972 l 114 1069 l 247 1069 q 392 1021 347 1069 q 438 861 438 972 l 438 681 q 467 553 438 597 q 553 510 497 510 l 618 510 l 618 407 l 553 407 q 467 363 497 407 q 438 236 438 319 l 438 56 q 392 -103 438 -54 q 247 -153 347 -153 z "},"[":{"ha":694,"x_min":181,"x_max":556,"o":"m 181 -153 l 181 1069 l 556 1069 l 556 972 l 286 972 l 286 -56 l 556 -56 l 556 -153 l 181 -153 z "},"]":{"ha":694,"x_min":139,"x_max":514,"o":"m 514 -153 l 139 -153 l 139 -56 l 408 -56 l 408 972 l 139 972 l 139 1069 l 514 1069 l 514 -153 z "},"-":{"ha":694,"x_min":146,"x_max":549,"o":"m 146 353 l 146 453 l 549 453 l 549 353 l 146 353 z "},"­":{"ha":694,"x_min":146,"x_max":549,"o":"m 146 353 l 146 453 l 549 453 l 549 353 l 146 353 z "},"_":{"ha":694,"x_min":0,"x_max":694,"o":"m 0 -204 l 0 -115 l 694 -115 l 694 -204 l 0 -204 z "},"«":{"ha":694,"x_min":61,"x_max":604,"o":"m 269 0 l 61 361 l 269 722 l 374 722 l 163 361 l 374 0 l 269 0 m 500 0 l 292 361 l 500 722 l 604 722 l 393 361 l 604 0 l 500 0 z "},"»":{"ha":694,"x_min":90,"x_max":633,"o":"m 425 0 l 321 0 l 532 361 l 321 722 l 425 722 l 633 361 l 425 0 m 194 0 l 90 0 l 301 361 l 90 722 l 194 722 l 403 361 l 194 0 z "},"\"":{"ha":694,"x_min":185,"x_max":510,"o":"m 197 653 l 185 1069 l 304 1069 l 292 653 l 197 653 m 403 653 l 390 1069 l 510 1069 l 497 653 l 403 653 z "},"'":{"ha":694,"x_min":285,"x_max":410,"o":"m 299 653 l 285 1069 l 410 1069 l 396 653 l 299 653 z "}," ":{"ha":694,"x_min":0,"x_max":0,"o":""}," ":{"ha":694,"x_min":0,"x_max":0,"o":""},"¢":{"ha":694,"x_min":85,"x_max":571,"o":"m 313 361 l 313 868 l 410 868 l 410 361 l 313 361 m 313 -146 l 313 361 l 410 361 l 410 -146 l 313 -146 m 406 -14 q 85 333 85 -14 l 85 389 q 407 736 85 736 q 571 714 497 736 l 571 424 l 463 424 l 463 697 l 515 618 q 454 634 485 629 q 393 639 424 639 q 243 578 290 639 q 196 382 196 517 l 196 340 q 217 190 196 247 q 288 108 239 133 q 417 83 336 83 q 493 89 456 83 q 571 107 531 94 l 571 8 q 492 -8 533 -1 q 406 -14 450 -14 z "},"¤":{"ha":694,"x_min":47,"x_max":647,"o":"m 347 111 q 221 145 278 111 q 131 236 164 179 q 97 361 97 293 q 131 487 97 431 q 221 577 164 543 q 347 611 278 611 q 473 577 417 611 q 563 487 529 543 q 597 361 597 431 q 563 236 597 293 q 473 145 529 179 q 347 111 417 111 m 107 61 l 47 121 l 172 246 l 232 188 l 107 61 m 588 61 l 463 188 l 521 246 l 647 121 l 588 61 m 172 476 l 47 601 l 107 661 l 232 536 l 172 476 m 347 201 q 428 223 392 201 q 485 281 464 244 q 507 361 507 318 q 485 442 507 406 q 428 499 464 478 q 347 521 392 521 q 267 499 303 521 q 209 442 231 478 q 188 361 188 406 q 209 281 188 318 q 267 223 231 244 q 347 201 303 201 m 521 476 l 463 536 l 588 661 l 647 601 l 521 476 z "},"$":{"ha":694,"x_min":72,"x_max":614,"o":"m 299 -146 l 299 521 l 396 521 l 396 -146 l 299 -146 m 299 521 l 299 1160 l 396 1160 l 396 521 l 299 521 m 311 -14 q 203 -5 257 -14 q 97 22 150 4 l 97 129 q 199 97 149 108 q 301 86 249 86 q 448 125 396 86 q 500 249 500 164 q 483 328 500 293 q 424 397 465 364 q 310 471 383 431 q 167 567 219 522 q 94 662 115 611 q 72 778 72 713 q 148 967 72 907 q 386 1028 224 1028 q 484 1022 435 1028 q 588 1004 533 1017 l 588 708 l 476 708 l 476 961 l 521 911 q 451 924 483 919 q 383 928 418 928 q 235 891 283 928 q 186 776 186 854 q 203 698 186 733 q 263 628 221 663 q 378 554 306 594 q 518 459 467 504 q 592 363 569 414 q 614 246 614 313 q 538 51 614 115 q 311 -14 463 -14 z "},"£":{"ha":694,"x_min":83,"x_max":611,"o":"m 83 97 q 146 129 119 101 q 187 206 172 157 q 201 319 201 256 l 201 786 q 258 968 201 908 q 431 1028 315 1028 q 506 1022 468 1028 q 579 1006 543 1017 l 579 906 q 509 925 542 919 q 449 931 476 931 q 346 896 378 931 q 314 783 314 861 l 314 319 q 297 188 314 244 q 247 103 279 131 l 247 97 l 611 97 l 611 0 l 83 0 l 83 97 m 83 488 l 83 585 l 542 585 l 542 488 l 83 488 z "},"¥":{"ha":694,"x_min":21,"x_max":674,"o":"m 54 169 l 54 264 l 638 264 l 638 169 l 54 169 m 54 375 l 54 469 l 638 469 l 638 375 l 54 375 m 290 0 l 290 396 l 21 1014 l 136 1014 l 344 515 l 350 515 l 558 1014 l 674 1014 l 404 396 l 404 0 l 290 0 z "},"+":{"ha":694,"x_min":35,"x_max":660,"o":"m 292 0 l 292 353 l 35 353 l 35 453 l 292 453 l 292 806 l 403 806 l 403 453 l 660 453 l 660 353 l 403 353 l 403 0 l 292 0 z "},"×":{"ha":694,"x_min":68,"x_max":626,"o":"m 150 21 l 626 726 l 544 785 l 68 79 l 150 21 m 544 21 l 626 79 l 150 785 l 68 726 l 544 21 z "},"÷":{"ha":694,"x_min":35,"x_max":660,"o":"m 347 -1 q 272 26 300 -1 q 243 100 243 54 q 272 174 243 146 q 347 201 300 201 q 423 174 394 201 q 451 100 451 146 q 423 26 451 54 q 347 -1 394 -1 m 347 611 q 272 639 300 611 q 243 713 243 667 q 272 786 243 758 q 347 814 300 814 q 423 786 394 814 q 451 713 451 758 q 423 639 451 667 q 347 611 394 611 m 35 351 l 35 454 l 660 454 l 660 351 l 35 351 z "},"=":{"ha":694,"x_min":83,"x_max":611,"o":"m 83 511 l 83 611 l 611 611 l 611 511 l 83 511 m 83 194 l 83 294 l 611 294 l 611 194 l 83 194 z "},">":{"ha":694,"x_min":100,"x_max":628,"o":"m 100 22 l 100 133 l 542 399 l 542 407 l 100 672 l 100 783 l 628 467 l 628 339 l 100 22 z "},"<":{"ha":694,"x_min":67,"x_max":594,"o":"m 594 22 l 67 339 l 67 467 l 594 783 l 594 672 l 153 407 l 153 399 l 594 133 l 594 22 z "},"±":{"ha":694,"x_min":35,"x_max":660,"o":"m 292 239 l 292 576 l 35 576 l 35 676 l 292 676 l 292 1014 l 403 1014 l 403 676 l 660 676 l 660 576 l 403 576 l 403 239 l 292 239 m 35 0 l 35 100 l 660 100 l 660 0 l 35 0 z "},"¬":{"ha":694,"x_min":35,"x_max":660,"o":"m 549 194 l 549 511 l 35 511 l 35 611 l 660 611 l 660 194 l 549 194 z "},"~":{"ha":694,"x_min":28,"x_max":667,"o":"m 510 292 q 417 312 463 292 q 321 364 371 332 q 255 402 285 388 q 197 417 225 417 q 149 391 165 417 q 132 306 132 365 l 28 306 q 68 460 28 407 q 185 514 108 514 q 278 494 232 514 q 374 442 324 474 q 440 404 410 419 q 497 389 469 389 q 546 415 529 389 q 563 500 563 440 l 667 500 q 626 345 667 399 q 510 292 586 292 z "},"^":{"ha":694,"x_min":35,"x_max":660,"o":"m 35 389 l 281 1014 l 414 1014 l 660 389 l 542 389 l 350 904 l 344 904 l 153 389 l 35 389 z "},"µ":{"ha":694,"x_min":90,"x_max":604,"o":"m 90 -306 l 90 257 l 200 146 l 200 -306 l 90 -306 m 360 -14 q 198 10 257 -14 q 115 91 139 33 q 90 250 90 149 l 90 722 l 199 722 l 199 256 q 213 151 199 189 q 262 99 226 114 q 361 83 297 83 q 422 88 394 83 q 476 101 449 92 q 535 128 503 111 l 496 58 l 496 722 l 604 722 l 604 31 q 360 -14 503 -14 z "},"%":{"ha":694,"x_min":21,"x_max":674,"o":"m 219 569 q 73 625 125 569 q 21 781 21 681 l 21 817 q 73 972 21 917 q 219 1028 125 1028 q 366 972 314 1028 q 418 817 418 917 l 418 781 q 366 625 418 681 q 219 569 314 569 m 219 657 q 290 688 268 657 q 311 786 311 718 l 311 811 q 290 910 311 879 q 219 940 268 940 q 150 910 172 940 q 128 811 128 879 l 128 786 q 150 688 128 718 q 219 657 172 657 m 475 -14 q 328 42 381 -14 q 276 197 276 97 l 276 233 q 328 389 276 333 q 475 444 381 444 q 622 389 569 444 q 674 233 674 333 l 674 197 q 622 42 674 97 q 475 -14 569 -14 m 475 74 q 545 104 524 74 q 567 203 567 135 l 567 228 q 545 326 567 296 q 475 357 524 357 q 406 326 428 357 q 383 228 383 296 l 383 203 q 406 104 383 135 q 475 74 428 74 m 56 301 l 56 407 l 639 713 l 639 607 l 56 301 z "},"@":{"ha":694,"x_min":42,"x_max":639,"o":"m 382 -158 q 125 -31 208 -158 q 42 361 42 96 q 126 753 42 626 q 386 881 210 881 q 639 603 639 881 l 639 150 q 542 85 600 110 q 425 61 483 61 q 287 133 331 61 q 243 358 243 206 q 285 583 243 510 q 417 656 328 656 q 524 614 481 656 l 529 614 l 529 629 q 492 744 529 707 q 379 781 454 781 q 205 681 260 781 q 150 361 150 582 q 175 117 150 210 q 256 -17 200 25 q 400 -58 311 -58 q 492 -47 447 -58 q 581 -14 536 -36 l 581 -121 q 485 -149 536 -139 q 382 -158 433 -158 m 440 158 q 528 193 493 158 l 528 513 q 493 546 518 533 q 440 558 468 558 q 373 513 393 558 q 353 358 353 468 q 373 203 353 249 q 440 158 393 158 z "},"&":{"ha":694,"x_min":29,"x_max":626,"o":"m 378 -14 q 29 246 29 -14 q 42 331 29 292 q 84 409 54 369 q 165 495 114 449 q 294 600 217 542 q 387 682 354 649 q 432 743 419 715 q 444 801 444 771 q 409 895 444 863 q 308 928 374 928 q 208 895 244 928 q 172 801 172 863 q 185 738 172 771 q 228 665 197 706 q 313 568 258 625 l 619 250 l 550 175 l 208 524 q 99 670 136 599 q 61 813 61 742 q 128 969 61 911 q 308 1028 196 1028 q 488 969 421 1028 q 556 813 556 911 q 536 721 556 765 q 474 629 517 676 q 360 525 431 582 q 251 440 293 476 q 185 373 208 403 q 152 315 161 343 q 143 253 143 286 q 198 126 143 167 q 369 86 253 86 q 463 94 421 86 q 551 117 506 101 l 518 54 l 518 574 l 626 574 l 626 22 q 497 -5 554 4 q 378 -14 440 -14 z "},"¶":{"ha":694,"x_min":57,"x_max":578,"o":"m 307 375 q 181 418 238 375 q 90 534 124 461 q 57 694 57 607 q 90 856 57 783 q 181 971 124 928 q 307 1014 238 1014 l 578 1014 l 578 -194 l 481 -194 l 481 917 l 404 917 l 404 -194 l 307 -194 l 307 375 z "},"§":{"ha":694,"x_min":90,"x_max":604,"o":"m 382 243 q 467 297 432 253 q 503 403 503 342 q 465 504 503 464 q 340 567 428 544 q 192 621 247 589 q 114 696 138 653 q 90 796 90 739 q 160 965 90 903 q 347 1028 229 1028 q 576 981 465 1028 l 576 886 q 459 926 515 914 q 347 938 403 938 q 238 902 278 938 q 197 806 197 867 q 231 718 197 754 q 340 663 264 682 q 540 564 479 626 q 600 410 600 501 q 542 248 600 313 q 386 167 485 183 l 382 243 m 347 -208 q 118 -161 226 -208 l 118 -67 q 235 -106 179 -93 q 347 -118 292 -118 q 456 -82 417 -118 q 496 14 496 -46 q 463 102 496 67 q 354 157 431 138 q 154 256 215 193 q 93 410 93 318 q 152 572 93 507 q 308 653 211 636 l 313 576 q 226 522 263 567 q 190 417 190 478 q 228 315 190 356 q 354 254 267 275 q 502 199 447 232 q 581 124 557 167 q 604 25 604 82 q 535 -146 604 -83 q 347 -208 467 -208 z "},"©":{"ha":694,"x_min":14,"x_max":681,"o":"m 347 361 q 172 403 247 361 q 56 519 97 444 q 14 694 14 594 q 56 869 14 794 q 172 986 97 944 q 347 1028 247 1028 q 522 986 447 1028 q 639 869 597 944 q 681 694 681 794 q 639 519 681 594 q 522 403 597 444 q 347 361 447 361 m 372 489 q 237 538 283 489 q 190 681 190 586 l 190 714 q 367 906 190 906 q 413 902 390 906 q 454 892 436 899 l 454 742 l 357 742 l 357 879 l 401 811 q 364 822 383 822 q 307 796 325 822 q 289 711 289 769 l 289 683 q 309 597 289 622 q 378 572 329 572 q 417 575 396 572 q 454 582 438 578 l 454 497 q 415 491 438 493 q 372 489 393 489 m 347 431 q 487 463 428 431 q 578 555 546 496 q 611 694 611 614 q 578 834 611 775 q 487 926 546 893 q 347 958 428 958 q 208 926 267 958 q 116 834 149 893 q 83 694 83 775 q 116 555 83 614 q 208 463 149 496 q 347 431 267 431 z "},"®":{"ha":694,"x_min":14,"x_max":681,"o":"m 347 361 q 172 403 247 361 q 56 519 97 444 q 14 694 14 594 q 56 869 14 794 q 172 986 97 944 q 347 1028 247 1028 q 522 986 447 1028 q 639 869 597 944 q 681 694 681 794 q 639 519 681 594 q 522 403 597 444 q 347 361 447 361 m 347 431 q 487 463 428 431 q 578 555 546 496 q 611 694 611 614 q 578 834 611 775 q 487 926 546 893 q 347 958 428 958 q 208 926 267 958 q 116 834 149 893 q 83 694 83 775 q 116 555 83 614 q 208 463 149 496 q 347 431 267 431 m 226 899 q 279 904 257 903 q 322 906 301 906 q 457 874 417 906 q 497 769 497 843 q 457 665 497 696 q 322 633 417 633 q 287 635 304 633 q 250 638 269 636 l 271 719 q 304 717 292 718 q 328 715 317 715 q 387 726 375 715 q 399 768 399 738 q 387 811 399 800 q 328 822 375 822 q 301 821 314 822 q 271 817 288 819 l 324 876 l 324 494 l 226 494 l 226 899 m 393 494 l 314 679 l 417 679 l 504 494 l 393 494 z "},"°":{"ha":694,"x_min":114,"x_max":581,"o":"m 347 561 q 228 592 282 561 q 144 676 175 622 q 114 794 114 729 q 144 914 114 861 q 228 997 175 967 q 347 1028 282 1028 q 467 997 414 1028 q 550 914 519 967 q 581 794 581 861 q 550 676 581 729 q 467 592 519 622 q 347 561 414 561 m 347 644 q 424 664 390 644 q 478 717 458 683 q 497 794 497 751 q 478 872 497 838 q 424 925 458 906 q 347 944 390 944 q 270 925 304 944 q 217 872 236 906 q 197 794 197 838 q 217 717 197 751 q 270 664 236 683 q 347 644 304 644 z "},"|":{"ha":694,"x_min":294,"x_max":400,"o":"m 294 -292 l 294 1125 l 400 1125 l 400 -292 l 294 -292 z "},"¦":{"ha":694,"x_min":294,"x_max":400,"o":"m 294 514 l 294 1125 l 400 1125 l 400 514 l 294 514 m 294 -306 l 294 306 l 400 306 l 400 -306 l 294 -306 z "},"¨":{"ha":694,"x_min":90,"x_max":604,"o":"m 189 1100 q 117 1126 144 1100 q 90 1194 90 1151 q 117 1264 90 1239 q 189 1289 144 1289 q 260 1264 233 1289 q 288 1194 288 1239 q 260 1126 288 1151 q 189 1100 233 1100 m 506 1100 q 434 1126 461 1100 q 407 1194 407 1151 q 434 1264 407 1239 q 506 1289 461 1289 q 577 1264 550 1289 q 604 1194 604 1239 q 577 1126 604 1151 q 506 1100 550 1100 z "},"`":{"ha":694,"x_min":118,"x_max":399,"o":"m 288 792 l 118 1097 l 257 1097 l 399 792 l 288 792 z "},"´":{"ha":694,"x_min":296,"x_max":576,"o":"m 407 1083 l 296 1083 l 438 1389 l 576 1389 l 407 1083 z "},"¯":{"ha":694,"x_min":104,"x_max":590,"o":"m 104 1108 l 104 1197 l 590 1197 l 590 1108 l 104 1108 z "},"¸":{"ha":694,"x_min":286,"x_max":532,"o":"m 372 -303 q 331 -301 350 -303 q 293 -293 311 -299 l 293 -201 q 326 -210 308 -207 q 364 -212 344 -212 q 398 -208 383 -212 q 421 -192 413 -203 q 429 -162 429 -181 q 392 -83 429 -125 q 286 0 356 -40 l 383 29 q 494 -71 456 -18 q 532 -181 532 -124 q 513 -247 532 -219 q 459 -288 494 -274 q 372 -303 424 -303 z "}}}
